<svg width="42" height="40" viewBox="0 0 42 40" fill="none" xmlns="http://www.w3.org/2000/svg">
<path d="M14.2858 40C15.8638 40 17.143 38.7208 17.143 37.1429C17.143 35.5649 15.8638 34.2858 14.2858 34.2858C12.7079 34.2858 11.4287 35.5649 11.4287 37.1429C11.4287 38.7208 12.7079 40 14.2858 40Z" fill="black"/>
<path d="M34.2853 40C35.8633 40 37.1425 38.7208 37.1425 37.1429C37.1425 35.5649 35.8633 34.2858 34.2853 34.2858C32.7074 34.2858 31.4282 35.5649 31.4282 37.1429C31.4282 38.7208 32.7074 40 34.2853 40Z" fill="black"/>
<path d="M39.9997 7.14309H8.31422L7.1428 1.14314C7.07602 0.815605 6.89649 0.521862 6.63546 0.313042C6.37444 0.104223 6.04845 -0.00644922 5.71424 0.000290625H0V2.85741H4.54282L9.99992 30.2858C10.0667 30.6133 10.2462 30.9071 10.5073 31.1159C10.7683 31.3247 11.0943 31.4354 11.4285 31.4286H37.1426V28.5715H12.5999L11.4285 22.8573H37.1426C37.4728 22.8653 37.7956 22.7587 38.0561 22.5555C38.3166 22.3524 38.4986 22.0652 38.5711 21.743L41.4283 8.88594C41.4761 8.67397 41.475 8.45388 41.425 8.24242C41.375 8.03095 41.2774 7.83368 41.1396 7.66562C41.0019 7.49756 40.8276 7.36314 40.6301 7.27259C40.4325 7.18205 40.2169 7.13776 39.9997 7.14309ZM35.9997 20.0001H10.8856L8.88565 10.0002H38.214L35.9997 20.0001Z" fill="black"/>
</svg>
