<svg width="22" height="28" viewBox="0 0 22 28" fill="none" xmlns="http://www.w3.org/2000/svg">
<path d="M10.9375 1.73126C11.9735 1.73126 12.9671 2.18726 13.6996 2.99895C14.4322 3.81064 14.8438 4.91152 14.8438 6.05942V6.92505H7.03125V6.05942C7.03125 4.91152 7.4428 3.81064 8.17536 2.99895C8.90793 2.18726 9.9015 1.73126 10.9375 1.73126ZM16.4062 6.92505V6.05942C16.4062 4.45236 15.8301 2.91112 14.8045 1.77476C13.7789 0.638401 12.3879 0 10.9375 0C9.4871 0 8.0961 0.638401 7.07051 1.77476C6.04492 2.91112 5.46875 4.45236 5.46875 6.05942V6.92505H0V24.2377C0 25.156 0.32924 26.0367 0.915291 26.6861C1.50134 27.3354 2.2962 27.7002 3.125 27.7002H18.75C19.5788 27.7002 20.3737 27.3354 20.9597 26.6861C21.5458 26.0367 21.875 25.156 21.875 24.2377V6.92505H16.4062ZM1.5625 8.65631H20.3125V24.2377C20.3125 24.6968 20.1479 25.1372 19.8549 25.4619C19.5618 25.7865 19.1644 25.9689 18.75 25.9689H3.125C2.7106 25.9689 2.31317 25.7865 2.02015 25.4619C1.72712 25.1372 1.5625 24.6968 1.5625 24.2377V8.65631Z" fill="#1F1F1F"/>
</svg>
