<svg width="41" height="40" viewBox="0 0 41 40" fill="none" xmlns="http://www.w3.org/2000/svg">
<path d="M35.3993 40H35.1377C4.90696 38.2615 0.614654 12.7538 0.0146536 4.96923C-0.0336922 4.36397 0.0378669 3.75512 0.22523 3.17756C0.412594 2.6 0.712079 2.06508 1.10653 1.60346C1.50097 1.14185 1.98263 0.762597 2.5239 0.487445C3.06517 0.212294 3.65541 0.0466489 4.26081 1.44245e-06H12.7377C13.354 -0.000595117 13.9562 0.183862 14.4664 0.529481C14.9766 0.8751 15.3713 1.36595 15.5993 1.93846L17.9377 7.69231C18.1629 8.25161 18.2188 8.86474 18.0984 9.45553C17.9781 10.0463 17.6868 10.5887 17.2608 11.0154L13.9839 14.3231C14.4958 17.2319 15.8888 19.9133 17.9745 22.0046C20.0602 24.0958 22.7379 25.4958 25.6454 26.0154L28.9839 22.7077C29.417 22.2864 29.9645 22.0019 30.5582 21.8898C31.1518 21.7776 31.7654 21.8427 32.3223 22.0769L38.1223 24.4C38.6862 24.6352 39.1673 25.033 39.5043 25.5426C39.8413 26.0522 40.019 26.6506 40.0147 27.2615V35.3846C40.0147 36.6087 39.5284 37.7826 38.6628 38.6482C37.7973 39.5137 36.6233 40 35.3993 40ZM4.63004 3.07692C4.22201 3.07692 3.8307 3.23901 3.54218 3.52753C3.25366 3.81605 3.09158 4.20736 3.09158 4.61539V4.73846C3.79927 13.8462 8.33773 35.3846 35.307 36.9231C35.5091 36.9356 35.7117 36.908 35.9031 36.8421C36.0946 36.7761 36.2711 36.673 36.4226 36.5386C36.5741 36.4042 36.6976 36.2413 36.786 36.0591C36.8744 35.8769 36.926 35.6791 36.9377 35.4769V27.2615L31.1377 24.9385L26.7223 29.3231L25.9839 29.2308C12.5993 27.5538 10.7839 14.1692 10.7839 14.0308L10.6916 13.2923L15.0608 8.87693L12.7531 3.07692H4.63004Z" fill="#1F1F1F"/>
</svg>
