<svg width="30" height="40" viewBox="0 0 30 40" fill="none" xmlns="http://www.w3.org/2000/svg">
<path d="M15 2.85714C16.4834 2.85714 17.9334 3.27606 19.1668 4.06093C20.4001 4.8458 21.3614 5.96136 21.9291 7.26655C22.4968 8.57173 22.6453 10.0079 22.3559 11.3935C22.0665 12.7791 21.3522 14.0518 20.3033 15.0508C19.2544 16.0497 17.918 16.73 16.4632 17.0056C15.0083 17.2812 13.5003 17.1398 12.1299 16.5991C10.7594 16.0585 9.58809 15.143 8.76398 13.9684C7.93987 12.7937 7.50001 11.4127 7.50001 10C7.50001 8.1056 8.29018 6.28878 9.6967 4.94924C11.1032 3.60969 13.0109 2.85714 15 2.85714ZM15 0C12.9233 0 10.8932 0.58649 9.16652 1.6853C7.4398 2.78412 6.09399 4.3459 5.29927 6.17317C4.50455 8.00043 4.29661 10.0111 4.70176 11.9509C5.1069 13.8907 6.10693 15.6725 7.57538 17.0711C9.04384 18.4696 10.9148 19.422 12.9516 19.8079C14.9884 20.1937 17.0996 19.9957 19.0182 19.2388C20.9368 18.4819 22.5767 17.2002 23.7304 15.5557C24.8842 13.9112 25.5 11.9778 25.5 10C25.5 7.34784 24.3938 4.8043 22.4246 2.92893C20.4555 1.05357 17.7848 0 15 0Z" fill="black"/>
<path d="M30 40H27V32.8572C27 30.9628 26.2098 29.146 24.8033 27.8064C23.3968 26.4669 21.4891 25.7143 19.5 25.7143H10.5C8.51088 25.7143 6.60322 26.4669 5.1967 27.8064C3.79018 29.146 3 30.9628 3 32.8572V40H0V32.8572C0 30.205 1.10625 27.6615 3.07538 25.7861C5.04451 23.9107 7.71523 22.8572 10.5 22.8572H19.5C22.2848 22.8572 24.9555 23.9107 26.9246 25.7861C28.8938 27.6615 30 30.205 30 32.8572V40Z" fill="black"/>
</svg>
