<svg width="33" height="32" viewBox="0 0 33 32" fill="none" xmlns="http://www.w3.org/2000/svg">
<path d="M13.3301 2.05C15.4962 2.04802 17.6143 2.68855 19.4163 3.89054C21.2183 5.09254 22.6234 6.80201 23.4537 8.80268C24.284 10.8034 24.5023 13.0054 24.0809 15.1301C23.6595 17.2549 22.6174 19.2069 21.0864 20.7393C19.5555 22.2717 17.6044 23.3155 15.48 23.7389C13.3556 24.1622 11.1534 23.9459 9.15201 23.1174C7.15058 22.2889 5.43983 20.8855 4.23619 19.0845C3.03254 17.2836 2.39008 15.1661 2.39008 13C2.40322 10.1017 3.55972 7.32561 5.60824 5.27522C7.65677 3.22482 10.4318 2.06578 13.3301 2.05ZM13.3301 0C10.7589 0 8.24551 0.762437 6.10767 2.1909C3.96983 3.61935 2.30359 5.64968 1.31965 8.02512C0.335711 10.4006 0.0782674 13.0144 0.579875 15.5362C1.08148 18.0579 2.31961 20.3743 4.1377 22.1924C5.95578 24.0105 8.27216 25.2486 10.7939 25.7502C13.3157 26.2518 15.9295 25.9944 18.305 25.0104C20.6804 24.0265 22.7107 22.3603 24.1392 20.2224C25.5676 18.0846 26.3301 15.5712 26.3301 13C26.3301 9.55219 24.9604 6.24558 22.5225 3.80761C20.0845 1.36964 16.7779 0 13.3301 0Z" fill="black"/>
<path d="M32 30.29L24.63 22.87L23.21 24.28L30.58 31.7C30.6725 31.7932 30.7826 31.8673 30.9038 31.918C31.025 31.9687 31.155 31.9951 31.2864 31.9956C31.4178 31.996 31.548 31.9706 31.6696 31.9207C31.7912 31.8709 31.9017 31.7976 31.995 31.705C32.0882 31.6124 32.1623 31.5024 32.213 31.3812C32.2637 31.2599 32.2901 31.1299 32.2905 30.9985C32.291 30.8671 32.2656 30.7369 32.2157 30.6154C32.1659 30.4938 32.0925 30.3832 32 30.29Z" fill="black"/>
</svg>
