<svg width="16" height="16" viewBox="0 0 16 16" fill="none" xmlns="http://www.w3.org/2000/svg">
<path d="M9.73473 9.38677L10.8547 7.44689C10.9267 7.32665 10.8947 7.17435 10.7907 7.08617L9.60673 6.15631C9.63073 5.97996 9.64673 5.79559 9.64673 5.61122C9.64673 5.42685 9.63073 5.24249 9.60673 5.05812L10.7907 4.12826C10.8947 4.04008 10.9267 3.88778 10.8547 3.76754L9.73473 1.82766C9.66273 1.70742 9.51873 1.65932 9.39073 1.70741L7.99875 2.26854C7.71075 2.04409 7.39875 1.85972 7.05476 1.71543L6.84676 0.232465C6.83333 0.167633 6.7983 0.109303 6.74742 0.0670586C6.69654 0.0248138 6.63283 0.00116606 6.56676 0H4.32678C4.19079 0 4.07079 0.104208 4.04679 0.240481L3.83879 1.72345C3.50279 1.86774 3.1828 2.0521 2.8948 2.27655L1.50281 1.71543C1.37482 1.66733 1.23082 1.71543 1.15882 1.83567L0.0388304 3.77555C-0.0331689 3.89579 -0.00116907 4.0481 0.10283 4.13627L1.28682 5.06613C1.26282 5.24249 1.24682 5.42685 1.24682 5.61122C1.24682 5.79559 1.26282 5.97996 1.28682 6.16433L0.10283 7.09419C-0.00116907 7.18237 -0.0331689 7.33467 0.0388304 7.45491L1.15882 9.39479C1.23082 9.51503 1.37482 9.56313 1.50281 9.51503L2.8948 8.95391C3.1828 9.17836 3.49479 9.36273 3.83879 9.50701L4.04679 10.99C4.07079 11.1182 4.19079 11.2224 4.32678 11.2224H6.56676C6.70276 11.2224 6.82276 11.1182 6.84676 10.982L7.05476 9.499C7.39075 9.35471 7.71075 9.17034 7.99875 8.94589L9.39073 9.50701C9.51873 9.55511 9.66273 9.50701 9.73473 9.38677ZM5.44677 7.21443C4.56678 7.21443 3.84679 6.49299 3.84679 5.61122C3.84679 4.72946 4.56678 4.00802 5.44677 4.00802C6.32676 4.00802 7.04676 4.72946 7.04676 5.61122C7.04676 6.49299 6.32676 7.21443 5.44677 7.21443ZM15.9347 13.3627L15.1667 12.7695C15.1827 12.6573 15.1987 12.5371 15.1987 12.4168C15.1987 12.2966 15.1907 12.1764 15.1667 12.0641L15.9267 11.4709C15.9907 11.4148 16.0147 11.3186 15.9667 11.2385L15.2467 9.99599C15.2067 9.91583 15.1107 9.89178 15.0227 9.91583L14.1347 10.2766C13.9507 10.1323 13.7507 10.012 13.5267 9.92385L13.3907 8.97796C13.3875 8.93511 13.3686 8.89498 13.3375 8.86535C13.3065 8.83572 13.2656 8.81871 13.2227 8.81764H11.7907C11.7027 8.81764 11.6227 8.88176 11.6147 8.96994L11.4787 9.91583C11.2627 10.012 11.0547 10.1242 10.8707 10.2685L9.98272 9.90782C9.94196 9.89245 9.89708 9.89208 9.85606 9.90675C9.81505 9.92143 9.78055 9.95021 9.75873 9.98798L9.03873 11.2305C8.99873 11.3106 9.00673 11.4068 9.07873 11.4629L9.83873 12.0561C9.80573 12.2901 9.80573 12.5275 9.83873 12.7615L9.07873 13.3547C9.01474 13.4108 8.99074 13.507 9.03873 13.5872L9.75873 14.8297C9.79873 14.9098 9.89472 14.9339 9.98272 14.9098L10.8707 14.5491C11.0547 14.6934 11.2547 14.8136 11.4787 14.9018L11.6147 15.8477C11.6307 15.9359 11.7027 16 11.7907 16H13.2227C13.3107 16 13.3907 15.9359 13.3987 15.8477L13.5347 14.9018C13.7507 14.8056 13.9587 14.6934 14.1347 14.5491L15.0307 14.9098C15.1107 14.9419 15.2067 14.9098 15.2547 14.8297L15.9747 13.5872C16.0227 13.515 15.9987 13.4188 15.9347 13.3627ZM12.5027 13.491C12.2162 13.4909 11.9414 13.3767 11.7389 13.1736C11.5363 12.9705 11.4226 12.6951 11.4227 12.408C11.4228 12.1209 11.5367 11.8456 11.7394 11.6426C11.9421 11.4397 12.217 11.3257 12.5035 11.3259C12.79 11.326 13.0648 11.4401 13.2673 11.6432C13.4699 11.8463 13.5836 12.1217 13.5835 12.4088C13.5834 12.6959 13.4695 12.9712 13.2668 13.1742C13.0641 13.3771 12.7892 13.4911 12.5027 13.491Z" fill="#1F1F1F"/>
</svg>
