<svg width="146" height="132" viewBox="0 0 146 132" fill="none" xmlns="http://www.w3.org/2000/svg">
<g clip-path="url(#clip0)">
<path d="M144.707 108.647C143.379 116.896 137.395 123.283 131.025 128.865C130.136 129.644 129.244 130.409 128.35 131.158C128.344 131.161 128.338 131.168 128.332 131.172C128.289 131.208 128.246 131.244 128.206 131.28C128.021 131.434 127.837 131.589 127.654 131.741L127.769 131.777L128.126 131.888C128.004 131.854 127.882 131.822 127.76 131.788C127.723 131.777 127.685 131.769 127.649 131.758C123.425 130.606 119.116 129.342 115.663 126.644C112.081 123.842 109.614 119.065 110.849 114.663C111.012 114.087 111.238 113.53 111.523 113.004C111.639 112.784 111.767 112.571 111.902 112.361C112.719 111.067 113.862 110.015 115.214 109.314C116.567 108.614 118.08 108.289 119.597 108.374C121.115 108.46 122.583 108.951 123.85 109.799C125.117 110.647 126.138 111.82 126.807 113.198C126.747 108.348 122.358 104.812 118.242 102.309C114.124 99.8072 109.462 97.1048 108.168 92.4315C107.446 89.8315 108.053 87.1535 109.47 84.8909C109.514 84.822 109.558 84.7532 109.604 84.6859C111.342 82.0401 114.005 80.1535 117.061 79.4031C122.763 78.0972 128.739 80.5024 133.416 84.0464C140.943 89.7482 146.216 99.2686 144.707 108.647Z" fill="#7D98A1"/>
<path d="M132.612 99.5351C133.928 101.141 135.004 102.932 135.807 104.852C136.498 106.571 136.93 108.384 137.089 110.232C137.436 114.029 136.722 117.866 135.299 121.379C134.193 124.046 132.756 126.561 131.025 128.865C130.135 129.644 129.244 130.409 128.35 131.158C128.344 131.161 128.338 131.168 128.331 131.172C128.288 131.208 128.245 131.244 128.206 131.28C128.021 131.434 127.837 131.589 127.654 131.741L127.768 131.777L128.126 131.888C128.003 131.854 127.882 131.822 127.759 131.788C127.723 131.777 127.685 131.769 127.648 131.758C127.654 128.726 126.939 125.737 125.565 123.041C124.19 120.346 122.196 118.022 119.748 116.264C117.299 114.539 114.48 113.421 111.522 113.004C111.639 112.784 111.767 112.571 111.902 112.361C113.047 112.54 114.173 112.821 115.269 113.201C119.184 114.546 122.566 117.129 124.914 120.565C127.026 123.689 128.211 127.355 128.33 131.135C128.478 130.963 128.625 130.788 128.768 130.616C131.486 127.364 133.812 123.727 135.198 119.688C136.409 116.262 136.768 112.588 136.242 108.99C135.624 105.072 133.636 101.614 131.009 98.7128C128.195 95.6079 124.816 92.9687 121.28 90.7562C117.658 88.4852 113.774 86.6702 109.715 85.3516C109.624 85.3213 109.547 85.2565 109.501 85.1708C109.456 85.085 109.444 84.9849 109.47 84.891C109.486 84.8076 109.534 84.7339 109.604 84.686C109.64 84.6648 109.68 84.652 109.722 84.6488C109.764 84.6455 109.806 84.6518 109.845 84.6672C110.346 84.8304 110.844 84.9969 111.34 85.1736C115.468 86.6453 119.399 88.6291 123.043 91.0793C126.561 93.4392 129.939 96.2132 132.612 99.5351Z" fill="white"/>
<path d="M60.8195 80.6984C60.4135 80.6978 60.023 80.5415 59.7269 80.2611C59.4308 79.9807 59.2514 79.5973 59.2248 79.1884L58.9873 75.5276C58.9596 75.1 59.1012 74.6789 59.3811 74.3567C59.661 74.0346 60.0562 73.8378 60.4798 73.8098L88.8918 71.9316C89.3398 71.9017 89.7892 71.9613 90.2144 72.1068C90.6396 72.2523 91.0322 72.481 91.3698 72.7798C91.7074 73.0785 91.9834 73.4415 92.182 73.8479C92.3806 74.2544 92.4979 74.6964 92.5272 75.1486C92.5566 75.6008 92.4974 76.0545 92.353 76.4836C92.2086 76.9127 91.9818 77.3089 91.6857 77.6496C91.3896 77.9902 91.0299 78.2686 90.6271 78.4689C90.2244 78.6692 89.7865 78.7874 89.3384 78.8168L60.9265 80.6949C60.8907 80.6972 60.8551 80.6984 60.8195 80.6984Z" fill="#7D98A1"/>
<path d="M66.4219 81.1704C66.008 81.1697 65.6105 81.0074 65.3125 80.7175C65.0145 80.4275 64.8392 80.0325 64.8232 79.615L64.6207 74.1472C64.6129 73.9352 64.6465 73.7237 64.7196 73.5248C64.7928 73.3258 64.904 73.1434 65.047 72.9879C65.1899 72.8324 65.3618 72.7068 65.5529 72.6184C65.7439 72.5299 65.9504 72.4804 66.1604 72.4725L89.5244 71.591C89.9486 71.575 90.3617 71.7297 90.6728 72.0212C90.984 72.3127 91.1677 72.717 91.1836 73.1452L91.386 78.613C91.3939 78.825 91.3603 79.0365 91.2871 79.2354C91.214 79.4343 91.1028 79.6167 90.9598 79.7723C90.8169 79.9278 90.6449 80.0533 90.4539 80.1418C90.2628 80.2302 90.0564 80.2798 89.8464 80.2877L66.4824 81.1692C66.4622 81.17 66.4419 81.1704 66.4219 81.1704Z" fill="#2F2E41"/>
<path d="M93.8007 131.573H90.1664C89.7421 131.572 89.3353 131.402 89.0352 131.099C88.7352 130.796 88.5664 130.386 88.5659 129.957V99.3813C88.5664 98.9529 88.7352 98.5423 89.0352 98.2394C89.3353 97.9365 89.7421 97.7661 90.1664 97.7656H93.8007C94.2251 97.7661 94.6319 97.9365 94.9319 98.2394C95.232 98.5423 95.4008 98.9529 95.4012 99.3813V129.957C95.4008 130.386 95.232 130.796 94.9319 131.099C94.6319 131.402 94.2251 131.572 93.8007 131.573Z" fill="#2F2E41"/>
<path d="M77.6696 115.411L74.5617 113.509C74.1991 113.287 73.9387 112.928 73.8376 112.512C73.7366 112.096 73.8031 111.656 74.0226 111.29L89.7234 85.1422C89.9438 84.7762 90.299 84.5133 90.7111 84.4113C91.1232 84.3093 91.5586 84.3764 91.9217 84.5981L95.0296 86.4997C95.3923 86.7221 95.6527 87.0807 95.7537 87.4967C95.8548 87.9127 95.7882 88.3522 95.5687 88.7188L79.8679 114.866C79.6476 115.232 79.2924 115.495 78.8802 115.597C78.4681 115.699 78.0327 115.632 77.6696 115.411Z" fill="#2F2E41"/>
<path d="M88.281 65.8562C95.2165 65.8562 100.839 60.1808 100.839 53.1798C100.839 46.1788 95.2165 40.5034 88.281 40.5034C81.3455 40.5034 75.7231 46.1788 75.7231 53.1798C75.7231 60.1808 81.3455 65.8562 88.281 65.8562Z" fill="#7D98A1"/>
<path d="M81.4839 57.5081C81.08 57.3741 80.7091 57.1544 80.3963 56.8637C80.1891 56.6561 80.0293 56.4053 79.9282 56.1288C79.827 55.8524 79.787 55.5569 79.8109 55.2632C79.8241 55.0539 79.885 54.8506 79.9889 54.669C80.0928 54.4874 80.2369 54.3326 80.4099 54.2165C80.8589 53.9257 81.4596 53.9249 82.0711 54.1969L82.048 49.2482L82.5404 49.2458L82.5677 55.0636L82.1882 54.8226C81.7482 54.5437 81.1198 54.3474 80.6758 54.635C80.5661 54.7109 80.4752 54.8114 80.4103 54.9287C80.3453 55.0459 80.3079 55.1766 80.3012 55.3108C80.2846 55.5296 80.3149 55.7494 80.39 55.9553C80.4651 56.1612 80.5833 56.3484 80.7365 56.5041C81.2802 57.0284 82.0736 57.1924 82.9783 57.3389L82.9003 57.8297C82.4196 57.7654 81.9456 57.6578 81.4839 57.5081Z" fill="#2F2E41"/>
<path d="M76.9712 48.9982L76.9067 49.491L79.5362 49.8415L79.6007 49.3487L76.9712 48.9982Z" fill="#2F2E41"/>
<path d="M85.271 50.1044L85.2065 50.5972L87.836 50.9477L87.9005 50.4549L85.271 50.1044Z" fill="#2F2E41"/>
<path d="M98.7669 107.585H77.591C77.0361 107.584 76.5041 107.362 76.1117 106.965C75.7194 106.569 75.4987 106.032 75.498 105.472L79.9312 71.1553C79.9348 70.5977 80.1568 70.0642 80.5487 69.6714C80.9407 69.2785 81.4708 69.0582 82.0232 69.0586H89.5382C92.5398 69.062 95.4176 70.2672 97.5401 72.4097C99.6626 74.5523 100.856 77.4572 100.86 80.4872V105.472C100.859 106.032 100.639 106.569 100.246 106.965C99.8538 107.362 99.3218 107.584 98.7669 107.585Z" fill="#2F2E41"/>
<path d="M93.4348 105.755C93.306 106.039 93.0988 106.279 92.8381 106.446C92.5774 106.614 92.2743 106.702 91.9653 106.699L88.3312 106.667C88.121 106.666 87.9133 106.622 87.7198 106.539C87.5263 106.456 87.3509 106.336 87.2036 106.184C87.0563 106.033 86.9399 105.854 86.8612 105.657C86.7824 105.46 86.7428 105.25 86.7447 105.038L86.9916 76.2971C86.9955 75.8441 87.0877 75.3963 87.263 74.9793C87.4384 74.5622 87.6934 74.1841 88.0135 73.8666C88.3335 73.549 88.7125 73.2982 89.1286 73.1285C89.5447 72.9587 89.9898 72.8734 90.4386 72.8773C90.8874 72.8813 91.331 72.9744 91.7442 73.1514C92.1573 73.3284 92.5318 73.5858 92.8464 73.9089C93.161 74.232 93.4095 74.6145 93.5776 75.0345C93.7458 75.4546 93.8303 75.9039 93.8264 76.3569L93.5797 105.098C93.578 105.325 93.5286 105.549 93.4348 105.755Z" fill="#7D98A1"/>
<path d="M95.0401 98.0829C94.9114 98.3664 94.7042 98.6063 94.4435 98.7738C94.1828 98.9412 93.8797 99.029 93.5707 99.0266L87.3634 98.9723C86.9391 98.9681 86.5338 98.7941 86.2364 98.4886C85.9389 98.1831 85.7737 97.771 85.7769 97.3427L85.9797 73.7425C85.9815 73.5303 86.0246 73.3206 86.1068 73.1253C86.1889 72.93 86.3083 72.7529 86.4582 72.6042C86.6081 72.4555 86.7855 72.338 86.9804 72.2585C87.1753 72.179 87.3838 72.1391 87.594 72.1409L93.8012 72.1952C94.0114 72.1971 94.2191 72.2407 94.4126 72.3236C94.6061 72.4064 94.7815 72.527 94.9288 72.6783C95.0761 72.8296 95.1925 73.0088 95.2712 73.2055C95.3499 73.4022 95.3895 73.6127 95.3877 73.8248L95.185 97.4251C95.1833 97.6522 95.1339 97.8764 95.0401 98.0829Z" fill="#2F2E41"/>
<path d="M88.5159 45.6614C86.8372 44.2591 84.5931 45.5854 82.6947 45.3972C80.8784 45.2171 79.4166 43.6036 79.0182 41.8674C78.5534 39.8417 79.5609 37.7841 81.0784 36.4865C82.7405 35.0653 84.972 34.6236 87.0985 34.8399C89.5358 35.0877 91.7813 36.1893 93.8029 37.535C95.7534 38.7926 97.5533 40.2738 99.1665 41.9491C100.612 43.5004 101.847 45.3589 102.27 47.4756C102.655 49.3992 102.429 51.5434 101.329 53.2003C100.746 54.0499 99.9549 54.7334 99.0334 55.1847C98.0731 55.6838 97.0456 56.0471 96.1167 56.6084C94.7122 57.4571 93.3642 59.1867 93.8424 60.9506C93.945 61.3359 94.1399 61.6899 94.41 61.9813C94.7344 62.3313 95.2987 61.8498 94.9734 61.4989C94.402 60.8826 94.4083 60.046 94.6924 59.2917C95.0311 58.4413 95.6459 57.7323 96.436 57.2808C97.4084 56.6946 98.4871 56.3236 99.4849 55.7875C100.44 55.297 101.264 54.5806 101.887 53.6995C103.061 51.9847 103.38 49.7763 103.068 47.7449C102.731 45.5467 101.571 43.5655 100.133 41.9142C98.5686 40.1171 96.6597 38.6072 94.7132 37.2551C92.6245 35.8043 90.3242 34.5881 87.7965 34.1807C85.6053 33.8275 83.2429 34.1161 81.356 35.354C79.5946 36.5095 78.2641 38.4646 78.1687 40.6225C78.1383 41.6041 78.3677 42.5762 78.833 43.4386C79.2984 44.301 79.983 45.0227 80.8165 45.5294C81.6712 46.0237 82.658 46.2346 83.6378 46.1324C84.6857 46.0445 85.7298 45.7001 86.7873 45.7698C87.2656 45.79 87.7245 45.9669 88.0942 46.2739C88.461 46.5803 88.8797 45.9653 88.5159 45.6615V45.6614Z" fill="#2F2E41"/>
<path d="M73.7494 111.732C73.7539 111.704 73.7592 111.676 73.7652 111.648C73.809 111.44 73.8931 111.243 74.0128 111.069C74.1324 110.894 74.2852 110.745 74.4622 110.631L77.5162 108.642C77.8731 108.411 78.3064 108.331 78.7212 108.422C79.136 108.512 79.4983 108.765 79.7287 109.124L89.1498 123.869C89.3798 124.229 89.4588 124.666 89.3692 125.085C89.2797 125.504 89.029 125.87 88.6724 126.102L85.6183 128.091C85.2614 128.322 84.828 128.402 84.4133 128.311C83.9985 128.221 83.6361 127.968 83.4057 127.609L73.9846 112.864C73.7694 112.53 73.6855 112.126 73.7494 111.732Z" fill="#2F2E41"/>
<path d="M62.3118 14.5591C62.0771 13.9967 61.6843 13.5161 61.1818 13.1768C60.6794 12.8374 60.0894 12.6542 59.4849 12.6499H3.05874C2.24765 12.6503 1.4699 12.9758 0.896366 13.5547C0.322835 14.1337 0.000435824 14.9188 0 15.7375V87.7961C0.000435824 88.6148 0.322835 89.3999 0.896366 89.9789C1.4699 90.5578 2.24765 90.8833 3.05874 90.8837H59.4869C60.2978 90.8826 61.0752 90.557 61.6486 89.9782C62.222 89.3994 62.5446 88.6147 62.5457 87.7961V15.7375C62.547 15.3331 62.4682 14.9324 62.3138 14.5591H62.3118ZM61.8644 87.7961C61.8636 88.4329 61.6127 89.0434 61.1666 89.4937C60.7205 89.944 60.1157 90.1973 59.4849 90.198H3.05874C2.42777 90.1979 1.82266 89.9449 1.37646 89.4946C0.93025 89.0442 0.679472 88.4334 0.679258 87.7965V15.7379C0.680117 15.1012 0.93109 14.4907 1.37714 14.0405C1.8232 13.5902 2.42793 13.3369 3.05874 13.336H59.4869C59.9621 13.3378 60.426 13.4825 60.8194 13.7516C61.2128 14.0207 61.5178 14.4021 61.6955 14.847C61.7301 14.9356 61.76 15.0261 61.785 15.1179C61.839 15.3201 61.8664 15.5286 61.8664 15.7379L61.8644 87.7961Z" fill="#3F3D56"/>
<path d="M50.5363 29.6627H33.5399C33.1793 29.6627 32.8335 29.5181 32.5784 29.2607C32.3234 29.0032 32.1802 28.6541 32.1802 28.2901C32.1802 27.926 32.3234 27.5769 32.5784 27.3195C32.8335 27.0621 33.1793 26.9175 33.5399 26.9175H50.5363C50.8969 26.9175 51.2428 27.0621 51.4978 27.3195C51.7528 27.5769 51.8961 27.926 51.8961 28.2901C51.8961 28.6541 51.7528 29.0032 51.4978 29.2607C51.2428 29.5181 50.8969 29.6627 50.5363 29.6627Z" fill="#3F3D56"/>
<path d="M50.5362 36.8685H33.5398C33.3611 36.8687 33.1841 36.8334 33.0189 36.7645C32.8537 36.6957 32.7036 36.5946 32.5771 36.4671C32.4507 36.3396 32.3504 36.1882 32.2819 36.0216C32.2135 35.8549 32.1782 35.6763 32.1782 35.4959C32.1782 35.3155 32.2135 35.1368 32.2819 34.9702C32.3504 34.8035 32.4507 34.6521 32.5771 34.5247C32.7036 34.3972 32.8537 34.2961 33.0189 34.2272C33.1841 34.1584 33.3611 34.1231 33.5398 34.1233H50.5362C50.7149 34.1231 50.8919 34.1584 51.0571 34.2272C51.2223 34.2961 51.3724 34.3972 51.4988 34.5247C51.6253 34.6521 51.7256 34.8035 51.7941 34.9702C51.8625 35.1368 51.8977 35.3155 51.8977 35.4959C51.8977 35.6763 51.8625 35.8549 51.7941 36.0216C51.7256 36.1882 51.6253 36.3396 51.4988 36.4671C51.3724 36.5946 51.2223 36.6957 51.0571 36.7645C50.8919 36.8334 50.7149 36.8687 50.5362 36.8685Z" fill="#3F3D56"/>
<path d="M24.8193 40.9716H12.3984C11.9928 40.9712 11.604 40.8084 11.3172 40.5189C11.0304 40.2294 10.8691 39.8368 10.8687 39.4274V24.6314C10.8691 24.222 11.0304 23.8294 11.3172 23.5399C11.604 23.2504 11.9928 23.0876 12.3984 23.0872H24.8193C25.2249 23.0876 25.6137 23.2504 25.9005 23.5399C26.1873 23.8294 26.3486 24.222 26.3491 24.6314V39.4274C26.3486 39.8368 26.1873 40.2294 25.9005 40.5189C25.6137 40.8084 25.2249 40.9712 24.8193 40.9716Z" fill="#F94B4B"/>
<path d="M50.4184 51.6234H12.0067C11.6461 51.6234 11.3002 51.4788 11.0452 51.2214C10.7902 50.9639 10.647 50.6148 10.647 50.2508C10.647 49.8867 10.7902 49.5376 11.0452 49.2802C11.3002 49.0228 11.6461 48.8782 12.0067 48.8782H50.4184C50.779 48.8782 51.1249 49.0228 51.3799 49.2802C51.6349 49.5376 51.7782 49.8867 51.7782 50.2508C51.7782 50.6148 51.6349 50.9639 51.3799 51.2214C51.1249 51.4788 50.779 51.6234 50.4184 51.6234Z" fill="#CCCCCC"/>
<path d="M50.4184 58.8294H12.0067C11.6461 58.8294 11.3002 58.6848 11.0452 58.4274C10.7902 58.17 10.647 57.8209 10.647 57.4568C10.647 57.0928 10.7902 56.7437 11.0452 56.4863C11.3002 56.2288 11.6461 56.0842 12.0067 56.0842H50.4184C50.779 56.0842 51.1249 56.2288 51.3799 56.4863C51.6349 56.7437 51.7782 57.0928 51.7782 57.4568C51.7782 57.8209 51.6349 58.17 51.3799 58.4274C51.1249 58.6848 50.779 58.8294 50.4184 58.8294Z" fill="#CCCCCC"/>
<path d="M50.4185 66.0353H12.0069C11.6465 66.0348 11.3012 65.8899 11.0465 65.6326C10.7919 65.3752 10.6489 65.0264 10.6489 64.6626C10.6489 64.2989 10.7919 63.9501 11.0465 63.6927C11.3012 63.4354 11.6465 63.2905 12.0069 63.29H50.4185C50.5973 63.2898 50.7743 63.3251 50.9394 63.394C51.1046 63.4629 51.2547 63.5639 51.3812 63.6914C51.5077 63.8189 51.608 63.9703 51.6764 64.1369C51.7449 64.3036 51.7801 64.4822 51.7801 64.6626C51.7801 64.8431 51.7449 65.0217 51.6764 65.1883C51.608 65.355 51.5077 65.5064 51.3812 65.6339C51.2547 65.7614 51.1046 65.8624 50.9394 65.9313C50.7743 66.0002 50.5973 66.0355 50.4185 66.0353Z" fill="#CCCCCC"/>
<path d="M50.4184 73.2411H12.0067C11.6461 73.2411 11.3002 73.0964 11.0452 72.839C10.7902 72.5816 10.647 72.2325 10.647 71.8685C10.647 71.5044 10.7902 71.1553 11.0452 70.8979C11.3002 70.6405 11.6461 70.4958 12.0067 70.4958H50.4184C50.779 70.4958 51.1249 70.6405 51.3799 70.8979C51.6349 71.1553 51.7782 71.5044 51.7782 71.8685C51.7782 72.2325 51.6349 72.5816 51.3799 72.839C51.1249 73.0964 50.779 73.2411 50.4184 73.2411Z" fill="#CCCCCC"/>
<path d="M50.4184 80.4469H12.0067C11.6461 80.4469 11.3002 80.3023 11.0452 80.0448C10.7902 79.7874 10.647 79.4383 10.647 79.0743C10.647 78.7102 10.7902 78.3611 11.0452 78.1037C11.3002 77.8463 11.6461 77.7017 12.0067 77.7017H50.4184C50.779 77.7017 51.1249 77.8463 51.3799 78.1037C51.6349 78.3611 51.7782 78.7102 51.7782 79.0743C51.7782 79.4383 51.6349 79.7874 51.3799 80.0448C51.1249 80.3023 50.779 80.4469 50.4184 80.4469Z" fill="#CCCCCC"/>
<path d="M62.7333 26.4929C69.9807 26.4929 75.8558 20.5623 75.8558 13.2465C75.8558 5.93064 69.9807 0 62.7333 0C55.486 0 49.6108 5.93064 49.6108 13.2465C49.6108 20.5623 55.486 26.4929 62.7333 26.4929Z" fill="#F94B4B"/>
<path d="M61.4331 18.2997C61.1379 18.3002 60.8505 18.2038 60.6143 18.025L60.5996 18.0139L57.5157 15.6325C57.3728 15.5219 57.253 15.3841 57.1629 15.2268C57.0729 15.0695 57.0144 14.8958 56.9908 14.7157C56.9672 14.5356 56.979 14.3526 57.0256 14.1771C57.0721 14.0016 57.1524 13.837 57.2619 13.6929C57.3714 13.5487 57.5079 13.4277 57.6637 13.3368C57.8196 13.2459 57.9916 13.1868 58.17 13.163C58.3485 13.1393 58.5298 13.1512 58.7036 13.1981C58.8775 13.2451 59.0405 13.3261 59.1833 13.4367L61.1809 14.9829L65.9012 8.7666C66.0107 8.62248 66.1472 8.50153 66.3029 8.41066C66.4587 8.31979 66.6307 8.26079 66.809 8.23701C66.9874 8.21323 67.1686 8.22514 67.3424 8.27206C67.5162 8.31899 67.6791 8.40001 67.8219 8.51051L67.8223 8.51081L67.793 8.55187L67.8231 8.51081C68.1111 8.73427 68.2996 9.06395 68.3471 9.42751C68.3946 9.79107 68.2973 10.1588 68.0765 10.45L62.5244 17.7585C62.3959 17.9269 62.2308 18.0632 62.0417 18.1567C61.8527 18.2503 61.6448 18.2986 61.4343 18.298L61.4331 18.2997Z" fill="white"/>
<path d="M145.758 132H56.4784C56.4141 132 56.3524 131.974 56.3069 131.928C56.2614 131.882 56.2358 131.82 56.2358 131.755C56.2358 131.69 56.2614 131.628 56.3069 131.582C56.3524 131.536 56.4141 131.51 56.4784 131.51H145.758C145.822 131.51 145.884 131.536 145.929 131.582C145.975 131.628 146 131.69 146 131.755C146 131.82 145.975 131.882 145.929 131.928C145.884 131.974 145.822 132 145.758 132Z" fill="#3F3D56"/>
</g>
<defs>
<clipPath id="clip0">
<rect width="146" height="132" fill="white"/>
</clipPath>
</defs>
</svg>
