<svg width="228" height="129" viewBox="0 0 228 129" fill="none" xmlns="http://www.w3.org/2000/svg">
<path d="M83.9003 106.215C82.8998 114.11 79.2211 121.334 75.2966 128.293C75.1668 128.53 75.0333 128.763 74.8965 129H34.1073C33.2824 128.784 32.4681 128.547 31.6572 128.293C27.0501 126.88 22.7008 124.725 18.7781 121.911C3.77173 111.02 -2.00271 90.441 0.605476 72.0012C2.22726 60.5449 7.21874 48.8481 16.9386 42.678C22.0706 39.4144 28.6628 38.3536 34.5706 39.5664C34.7252 39.5947 34.8796 39.63 35.0375 39.6619C40.1204 40.8146 44.6485 43.6787 47.2252 48.293C51.8586 56.5847 49.0996 66.8565 46.8215 76.0852C44.5503 85.3139 43.3181 96.3601 49.9105 103.167C47.7341 96.7137 49.8824 89.016 55.0811 84.6527C59.009 81.3608 64.478 80.1267 69.4661 81.1486C69.9435 81.2512 70.4139 81.3678 70.8772 81.5093C71.9971 81.8396 73.0767 82.295 74.0961 82.8671C81.8713 87.241 85.02 97.3148 83.9003 106.215Z" fill="#7D98A1"/>
<path d="M59.7151 128.293C60.8453 128.558 61.9791 128.791 63.1199 129H56.9525C56.145 128.781 55.3411 128.547 54.5445 128.293C52.7928 127.741 51.068 127.108 49.3703 126.394C42.5604 123.516 36.2876 119.195 31.5417 113.446C29.2207 110.66 27.3253 107.541 25.9183 104.192C24.3926 100.407 23.4229 96.4176 23.04 92.3504C22.1799 84.0056 23.0575 75.4311 24.6967 67.2349C26.3884 58.7399 29.1192 50.489 32.8265 42.6709C33.2723 41.7339 33.7333 40.8028 34.2095 39.8776C34.2423 39.8014 34.2919 39.7338 34.3545 39.6799C34.4172 39.6259 34.4912 39.5871 34.571 39.5664C34.7331 39.5348 34.9009 39.5691 35.0379 39.6619C35.2023 39.7569 35.3242 39.9119 35.3784 40.0948C35.4326 40.2777 35.4151 40.4746 35.3293 40.6449C31.5068 48.1536 28.6093 56.1047 26.7011 64.3213C24.8337 72.3372 23.7736 80.7243 24.135 88.9665C24.4791 96.6677 26.4765 104.242 31.0082 110.539C35.1467 116.288 40.8614 120.821 47.1834 123.908C51.1849 125.837 55.3884 127.307 59.7151 128.293V128.293Z" fill="white"/>
<path d="M73.2505 129H71.4321C71.2285 128.767 71.0319 128.53 70.8389 128.293C66.6972 123.224 63.8914 117.185 62.681 110.734C61.2111 102.683 62.3546 94.3699 65.942 87.0254C66.9429 84.9659 68.1223 82.9993 69.4663 81.1487C69.9437 81.2512 70.4142 81.3679 70.8775 81.5093C67.3421 86.2276 64.9642 91.7209 63.9377 97.5411C63.022 102.995 63.3264 108.586 64.8289 113.906C66.3313 119.226 68.9938 124.141 72.6222 128.293C72.8256 128.53 73.0363 128.767 73.2505 129Z" fill="white"/>
<path d="M140.022 75.1409H106.331L105.974 64.7062C105.958 64.2539 106.04 63.8035 106.214 63.3862C106.388 62.9689 106.649 62.5944 106.981 62.2887C107.312 61.9829 107.705 61.7531 108.133 61.6151C108.561 61.477 109.014 61.434 109.46 61.489L129.066 63.9074H129.068C131.975 63.9153 134.76 65.0834 136.813 67.1559C138.867 69.2284 140.021 72.0362 140.022 74.9641V75.1409Z" fill="#7D98A1"/>
<path d="M125.006 38.1274H101.508C101.195 38.1274 100.886 38.1893 100.597 38.3097C100.308 38.4302 100.046 38.6067 99.8247 38.8293C99.6037 39.0519 99.4285 39.3162 99.3089 39.607C99.1893 39.8979 99.1278 40.2096 99.1279 40.5244V64.1945C99.1278 64.5093 99.1893 64.821 99.3089 65.1119C99.4285 65.4027 99.6037 65.667 99.8247 65.8896C100.046 66.1122 100.308 66.2887 100.597 66.4092C100.886 66.5296 101.195 66.5915 101.508 66.5915H125.006C125.318 66.5915 125.628 66.5296 125.917 66.4092C126.205 66.2887 126.468 66.1122 126.689 65.8896C126.91 65.667 127.085 65.4027 127.205 65.1119C127.324 64.821 127.386 64.5093 127.385 64.1945V40.5244C127.386 40.2096 127.324 39.8979 127.205 39.607C127.085 39.3162 126.91 39.0519 126.689 38.8293C126.468 38.6067 126.205 38.4302 125.917 38.3097C125.628 38.1893 125.318 38.1274 125.006 38.1274V38.1274Z" fill="#F94B4B"/>
<path d="M119.713 55.8267L108.619 58.003C107.961 58.1314 107.279 57.9915 106.723 57.6141C106.167 57.2367 105.783 56.6526 105.654 55.99L104.801 51.5786C104.674 50.9157 104.812 50.2289 105.187 49.669C105.562 49.1091 106.142 48.7217 106.799 48.5919L117.894 46.4156C118.552 46.2873 119.234 46.4272 119.79 46.8046C120.346 47.1819 120.73 47.766 120.859 48.4286L121.712 52.8401C121.839 53.503 121.7 54.1897 121.326 54.7497C120.951 55.3096 120.371 55.6969 119.713 55.8267Z" fill="#3F3D56"/>
<path d="M117.494 50.6152L109.027 52.2761C108.872 52.3064 108.712 52.2736 108.581 52.1848C108.45 52.0959 108.359 51.9584 108.329 51.8024C108.299 51.6464 108.332 51.4847 108.42 51.3529C108.508 51.2211 108.645 51.13 108.8 51.0997L117.266 49.4388C117.421 49.4084 117.582 49.4412 117.713 49.5301C117.844 49.6189 117.934 49.7564 117.964 49.9124C117.994 50.0684 117.962 50.2301 117.873 50.3619C117.785 50.4937 117.649 50.5848 117.494 50.6152V50.6152Z" fill="white"/>
<path d="M115.848 53.0746L111.469 53.9337C111.314 53.9641 111.153 53.9313 111.023 53.8424C110.892 53.7536 110.801 53.6161 110.771 53.4601C110.741 53.3041 110.774 53.1424 110.862 53.0106C110.95 52.8788 111.087 52.7877 111.241 52.7573L115.621 51.8983C115.698 51.8832 115.776 51.8835 115.853 51.8992C115.93 51.9149 116.002 51.9456 116.067 51.9895C116.132 52.0335 116.187 52.0899 116.231 52.1555C116.274 52.2211 116.304 52.2947 116.319 52.3719C116.333 52.4491 116.333 52.5286 116.318 52.6057C116.302 52.6828 116.272 52.7561 116.228 52.8214C116.184 52.8866 116.128 52.9426 116.063 52.986C115.998 53.0295 115.925 53.0596 115.848 53.0746Z" fill="white"/>
<path d="M127.385 40.5244V43.6704H99.1279V40.5244C99.1278 40.2096 99.1893 39.8979 99.3089 39.607C99.4285 39.3162 99.6037 39.0519 99.8247 38.8293C100.046 38.6067 100.308 38.4302 100.597 38.3097C100.886 38.1893 101.195 38.1274 101.508 38.1274H125.006C125.318 38.1274 125.628 38.1893 125.917 38.3097C126.205 38.4302 126.468 38.6067 126.689 38.8293C126.91 39.0519 127.085 39.3162 127.205 39.607C127.324 39.8979 127.386 40.2096 127.385 40.5244Z" fill="#B3B3B3"/>
<path d="M183.813 44.6555C183.65 44.1251 183.373 43.6371 183.003 43.226C182.632 42.8149 182.176 42.4907 181.668 42.2761C181.159 42.0615 180.61 41.9619 180.06 41.9841C179.509 42.0064 178.969 42.1501 178.48 42.405L146.151 30.7214L144.728 38.8566L176.953 47.7831C177.433 48.5835 178.187 49.1788 179.073 49.4563C179.96 49.7338 180.916 49.6741 181.762 49.2886C182.608 48.9031 183.283 48.2185 183.661 47.3646C184.039 46.5107 184.093 45.5468 183.813 44.6555V44.6555Z" fill="#FFB8B8"/>
<path opacity="0.2" d="M183.813 44.6555C183.65 44.1251 183.373 43.6371 183.003 43.226C182.632 42.8149 182.176 42.4907 181.668 42.2761C181.159 42.0615 180.61 41.9619 180.06 41.9841C179.509 42.0064 178.969 42.1501 178.48 42.405L146.151 30.7214L144.728 38.8566L176.953 47.7831C177.433 48.5835 178.187 49.1788 179.073 49.4563C179.96 49.7338 180.916 49.6741 181.762 49.2886C182.608 48.9031 183.283 48.2185 183.661 47.3646C184.039 46.5107 184.093 45.5468 183.813 44.6555V44.6555Z" fill="black"/>
<path d="M151.889 32.2037L148.837 40.2374C148.75 40.4659 148.615 40.673 148.442 40.8444C148.268 41.0158 148.06 41.1475 147.831 41.2306C147.603 41.3136 147.359 41.3461 147.117 41.3258C146.875 41.3055 146.64 41.2328 146.428 41.1128L139.009 36.9064C137.851 36.452 136.918 35.5535 136.417 34.4079C135.915 33.2622 135.885 31.9629 136.332 30.7948C136.78 29.6267 137.669 28.6851 138.805 28.1764C139.941 27.6678 141.231 27.6335 142.392 28.0813L150.677 29.9322C150.914 29.9853 151.137 30.0892 151.331 30.2369C151.525 30.3847 151.684 30.5727 151.8 30.7883C151.915 31.0039 151.982 31.2419 151.998 31.4861C152.013 31.7304 151.976 31.9751 151.889 32.2037V32.2037Z" fill="#7D98A1"/>
<path d="M186.358 52.094L174.774 57.3978L176.295 63.1653C179.232 74.3025 180.011 85.9054 178.59 97.3397V97.3397L187.06 99.1215L194.08 81.0884L191.623 60.5802L186.358 52.094Z" fill="#7D98A1"/>
<path d="M209.087 78.7903C201.476 78.7903 195.273 84.3636 194.972 91.3427H223.201C222.9 84.3636 216.698 78.7903 209.087 78.7903Z" fill="#214252"/>
<path d="M203.162 79.9929C202.766 48.4886 184.954 51.3869 184.954 51.3869C184.954 51.3869 185.287 61.1931 185.447 61.4981C196.798 83.1306 178.065 108.492 154.22 103.826C153.77 103.738 153.338 103.649 152.924 103.558C149.903 102.923 147.235 101.152 145.464 98.6059C143.693 96.0598 142.951 92.9296 143.389 89.8521C145.738 70.8517 134.055 71.1879 134.055 71.1879H116.972L108.1 63.1452C107.787 62.8613 107.41 62.659 107.001 62.556C106.592 62.453 106.165 62.4524 105.756 62.5543C105.347 62.6563 104.969 62.8575 104.655 63.1406C104.341 63.4236 104.101 63.7798 103.955 64.178L102.814 67.2985C102.814 67.2985 85.9647 69.0664 87.3688 85.6852H92.5779C92.5653 86.1573 92.5841 86.6298 92.6341 87.0995L131.511 86.7811C133.789 86.7625 135.801 88.6225 135.81 90.918C135.813 91.4769 135.703 92.0305 135.488 92.5457C135.273 93.0609 134.957 93.5271 134.559 93.9165C134.161 94.3059 133.689 94.6104 133.172 94.8119C132.654 95.0133 132.102 95.1076 131.547 95.089L125.28 94.8785C123.349 103.541 128.088 109.376 133.309 113.044C138.225 116.448 144.059 118.253 150.024 118.215H167.052C189.166 118.215 193.027 99.4752 193.027 99.4752C204.611 94.5249 203.162 79.9929 203.162 79.9929Z" fill="#214252"/>
<path d="M208.034 128.47C218.939 128.47 227.779 119.565 227.779 108.58C227.779 97.5955 218.939 88.6907 208.034 88.6907C197.129 88.6907 188.289 97.5955 188.289 108.58C188.289 119.565 197.129 128.47 208.034 128.47Z" fill="#214252"/>
<path d="M208.033 113.455C210.706 113.455 212.873 111.272 212.873 108.58C212.873 105.888 210.706 103.705 208.033 103.705C205.361 103.705 203.194 105.888 203.194 108.58C203.194 111.272 205.361 113.455 208.033 113.455Z" fill="white"/>
<path d="M108.342 128.47C120.895 128.47 131.071 118.219 131.071 105.575C131.071 92.9301 120.895 82.6797 108.342 82.6797C95.7893 82.6797 85.6133 92.9301 85.6133 105.575C85.6133 118.219 95.7893 128.47 108.342 128.47Z" fill="#214252"/>
<path d="M108.342 111.186C111.419 111.186 113.913 108.674 113.913 105.575C113.913 102.475 111.419 99.9631 108.342 99.9631C105.266 99.9631 102.771 102.475 102.771 105.575C102.771 108.674 105.266 111.186 108.342 111.186Z" fill="white"/>
<path d="M174.807 58.9651L170.639 47.562C170.422 46.9677 170.323 46.3361 170.348 45.7033C170.373 45.0705 170.522 44.4489 170.785 43.874C171.049 43.299 171.422 42.782 171.884 42.3525C172.346 41.9229 172.888 41.5892 173.478 41.3704L185.427 36.9395C186.465 36.5544 187.568 36.3791 188.673 36.4235C189.779 36.4679 190.865 36.7312 191.869 37.1983C192.873 37.6655 193.776 38.3273 194.527 39.146C195.277 39.9647 195.86 40.9243 196.242 41.97C196.587 42.9086 196.763 43.9014 196.762 44.9022C196.758 46.1728 196.472 47.4265 195.927 48.5721C195.381 49.7177 194.589 50.7264 193.607 51.5249C192.899 52.0977 192.102 52.5502 191.248 52.8647L174.807 58.9651Z" fill="#3F3D56"/>
<path d="M196.587 44.902C196.586 46.1468 196.308 47.3755 195.773 48.4977C195.239 49.62 194.461 50.6072 193.498 51.3868C192.02 50.9941 190.644 50.2819 189.467 49.2997C188.29 48.3174 187.339 47.0888 186.681 45.699C186.023 44.3093 185.673 42.7919 185.656 41.2523C185.639 39.7126 185.955 38.1877 186.583 36.7836C187.787 36.5198 189.034 36.5311 190.233 36.8164C191.432 37.1018 192.553 37.6541 193.512 38.4328C194.472 39.2114 195.246 40.1966 195.778 41.3161C196.31 42.4356 196.586 43.6608 196.587 44.902V44.902Z" fill="#7D98A1"/>
<path d="M90.3523 87.9835C93.0665 87.9835 95.2667 85.2923 95.2667 81.9725C95.2667 78.6527 93.0665 75.9614 90.3523 75.9614C87.6382 75.9614 85.438 78.6527 85.438 81.9725C85.438 85.2923 87.6382 87.9835 90.3523 87.9835Z" fill="#7D98A1"/>
<path d="M155.313 103.25H159.617L161.664 92.0071L155.312 92.0074L155.313 103.25Z" fill="#FFB8B8"/>
<path d="M154.216 101.835L162.691 101.834H162.691C163.401 101.834 164.103 101.975 164.758 102.249C165.413 102.522 166.009 102.923 166.51 103.428C167.012 103.933 167.41 104.533 167.681 105.193C167.953 105.853 168.092 106.56 168.092 107.275V107.452L154.216 107.452L154.216 101.835Z" fill="#2F2E41"/>
<path d="M160.309 98.6357C160.259 98.6357 160.208 98.6333 160.158 98.6285L154.202 98.1917C153.961 98.1692 153.729 98.0912 153.523 97.9639C153.316 97.8366 153.142 97.6632 153.013 97.4572C152.884 97.2512 152.803 97.0181 152.777 96.7758C152.752 96.5335 152.782 96.2885 152.865 96.0598L160.836 78.0215C160.893 77.8607 160.916 77.6897 160.904 77.5194C160.892 77.3491 160.845 77.1831 160.767 77.0319C160.688 76.8788 160.578 76.7443 160.445 76.637C160.311 76.5298 160.156 76.4523 159.991 76.4096C156.243 75.4227 146.626 72.795 138.302 69.7204C134.736 68.4031 132.489 66.4994 131.626 64.0623C130.487 60.8492 132.172 57.919 132.244 57.796L132.3 57.6997L140.133 58.4169L148.625 59.1445L167.234 69.1962C168.793 70.0456 169.978 71.4555 170.551 73.1451C171.125 74.8346 171.046 76.6799 170.33 78.3133L161.75 97.6927C161.626 97.9734 161.424 98.2118 161.168 98.3791C160.912 98.5465 160.614 98.6356 160.309 98.6357Z" fill="#2F2E41"/>
<path d="M141.495 22.7292C146.257 22.7292 150.117 18.841 150.117 14.0446C150.117 9.24831 146.257 5.36011 141.495 5.36011C136.734 5.36011 132.874 9.24831 132.874 14.0446C132.874 18.841 136.734 22.7292 141.495 22.7292Z" fill="#FFB8B8"/>
<path d="M152.856 104.311H157.16L159.207 93.0679L152.855 93.0682L152.856 104.311Z" fill="#FFB8B8"/>
<path d="M151.758 102.896L160.233 102.895H160.234C160.943 102.895 161.645 103.036 162.301 103.309C162.956 103.583 163.551 103.983 164.053 104.489C164.554 104.994 164.952 105.594 165.224 106.254C165.495 106.914 165.635 107.621 165.635 108.336V108.512L151.759 108.513L151.758 102.896Z" fill="#2F2E41"/>
<path d="M157.851 99.6963C157.801 99.6963 157.751 99.6939 157.7 99.689L151.745 99.2522C151.504 99.2297 151.271 99.1518 151.065 99.0244C150.859 98.8971 150.684 98.7237 150.555 98.5177C150.426 98.3118 150.345 98.0786 150.32 97.8364C150.294 97.5941 150.324 97.3491 150.407 97.1203L158.378 79.082C158.435 78.9212 158.458 78.7503 158.446 78.58C158.435 78.4096 158.388 78.2436 158.309 78.0924C158.231 77.9394 158.121 77.8048 157.987 77.6976C157.853 77.5903 157.699 77.5128 157.533 77.4702C153.785 76.4833 144.169 73.8555 135.844 70.7809C132.278 69.4636 130.032 67.56 129.168 65.1228C128.03 61.9098 129.714 58.9795 129.786 58.8566L129.843 58.7603L137.676 59.4774L146.168 60.205L164.777 70.2568C166.336 71.1062 167.52 72.5161 168.094 74.2056C168.668 75.8952 168.588 77.7404 167.872 79.3738L159.293 98.7532C159.169 99.0339 158.966 99.2723 158.711 99.4397C158.455 99.607 158.156 99.6962 157.851 99.6963Z" fill="#2F2E41"/>
<path d="M144.154 27.6537L135.027 24.4714C135.027 24.4714 129.298 28.9055 132.05 39.9051C133.487 45.5814 133.069 51.5731 130.857 56.9907C130.59 57.661 130.283 58.3142 129.938 58.9465C129.937 58.9465 140.117 71.3221 149.595 62.1288L145.909 44.2725C145.909 44.2725 151.701 32.4272 144.154 27.6537Z" fill="#F94B4B"/>
<path d="M142.566 23.0246C141.338 21.1745 140.37 18.6091 141.721 16.8488C143.055 15.1112 145.685 15.3672 147.727 14.5983C150.572 13.5274 152.222 10.161 151.707 7.14618C151.193 4.13134 148.79 1.63214 145.928 0.609546C143.066 -0.413047 139.838 -0.0804758 137.035 1.0971C133.585 2.54672 130.625 5.3509 129.384 8.90306C128.143 12.4552 128.807 16.7203 131.381 19.4505C134.142 22.3777 138.474 23.1578 142.482 23.1104" fill="#2F2E41"/>
<path d="M134.546 7.24302C132.999 8.51095 130.64 7.94779 128.981 6.83502C127.321 5.72226 125.974 4.13775 124.178 3.26529C121.012 1.72719 117.184 2.74968 114.103 4.45339C111.022 6.15711 108.29 8.51084 105.036 9.84783C101.781 11.1848 97.6277 11.2509 95.1632 8.72637C94.5567 10.4964 94.5072 12.4118 95.0212 14.2112C95.5353 16.0107 96.5881 17.6065 98.0358 18.781C99.4836 19.9555 101.256 20.6515 103.111 20.774C104.966 20.8965 106.813 20.4395 108.4 19.4654C111.967 17.2773 113.936 12.6893 117.936 11.4816C120.15 10.8133 122.526 11.3515 124.764 11.9346C127.001 12.5176 129.333 13.1475 131.591 12.6512C133.848 12.1549 135.96 10.1113 135.673 7.8018L134.546 7.24302Z" fill="#2F2E41"/>
<path d="M183.384 44.3017C183.157 43.7956 182.823 43.3457 182.405 42.9838C181.987 42.6219 181.495 42.3568 180.964 42.207C180.433 42.0573 179.876 42.0266 179.332 42.1172C178.788 42.2078 178.271 42.4174 177.816 42.7312L144.304 35.1548L143.887 43.4047L176.96 48.258C177.534 48.9926 178.355 49.4896 179.269 49.6548C180.183 49.82 181.125 49.6419 181.916 49.1543C182.708 48.6666 183.295 47.9033 183.566 47.0089C183.836 46.1146 183.772 45.1513 183.384 44.3017V44.3017Z" fill="#FFB8B8"/>
<path d="M150.179 35.9127L148.134 44.2644C148.076 44.502 147.967 44.7242 147.816 44.9159C147.665 45.1075 147.475 45.2641 147.258 45.3749C147.041 45.4858 146.804 45.5483 146.561 45.5582C146.318 45.5682 146.076 45.5253 145.851 45.4325L137.973 42.1803C136.767 41.8741 135.731 41.0985 135.092 40.0237C134.453 38.9489 134.264 37.6627 134.565 36.4472C134.867 35.2318 135.635 34.1865 136.7 33.5406C137.766 32.8947 139.042 32.7011 140.25 33.0022L148.698 33.8092C148.94 33.8324 149.174 33.9078 149.384 34.0304C149.595 34.1529 149.776 34.3196 149.917 34.5193C150.057 34.7189 150.154 34.9467 150.199 35.1871C150.244 35.4276 150.238 35.6751 150.179 35.9127V35.9127Z" fill="#7D98A1"/>
<path d="M179.513 50.8565C180.87 50.8565 181.97 49.7484 181.97 48.3814C181.97 47.0144 180.87 45.9062 179.513 45.9062C178.156 45.9062 177.056 47.0144 177.056 48.3814C177.056 49.7484 178.156 50.8565 179.513 50.8565Z" fill="#7D98A1"/>
</svg>
