<svg width="141" height="142" viewBox="0 0 141 142" fill="none" xmlns="http://www.w3.org/2000/svg">
<g clip-path="url(#clip0)">
<path d="M141 31.494H140.232V11.5456C140.232 10.0294 139.918 8.52806 139.306 7.12728C138.695 5.72651 137.799 4.45373 136.669 3.38163C135.539 2.30952 134.198 1.45908 132.721 0.878858C131.245 0.298637 129.663 1.19573e-06 128.065 0H83.5266C81.9288 -3.58706e-06 80.3466 0.298628 78.8704 0.878844C77.3942 1.45906 76.0529 2.3095 74.9231 3.3816C73.7932 4.4537 72.897 5.72648 72.2856 7.12725C71.6741 8.52802 71.3594 10.0294 71.3594 11.5455V120.984C71.3594 124.046 72.6413 126.983 74.9231 129.148C77.2048 131.313 80.2996 132.529 83.5265 132.529H128.065C131.292 132.529 134.387 131.313 136.669 129.148C138.951 126.983 140.232 124.046 140.232 120.984V45.6935H141L141 31.494Z" fill="#3F3D56"/>
<path d="M128.556 3.00391H122.743C123.01 3.62591 123.112 4.30075 123.04 4.96898C122.967 5.63722 122.723 6.27835 122.328 6.83589C121.933 7.39342 121.4 7.85026 120.775 8.16615C120.151 8.48203 119.454 8.64728 118.746 8.64733H93.23C92.5221 8.64728 91.8251 8.48204 91.2003 8.16615C90.5756 7.85026 90.0423 7.39342 89.6474 6.83589C89.2525 6.27835 89.0082 5.63722 88.936 4.96898C88.8638 4.30074 88.9658 3.6259 89.2332 3.00391H83.8031C81.3933 3.0039 79.0821 3.9123 77.3781 5.52926C75.6741 7.14621 74.7168 9.33928 74.7168 11.626V120.904C74.7168 123.191 75.6741 125.384 77.3781 127.001C79.0821 128.617 81.3933 129.526 83.8031 129.526H128.556C129.75 129.526 130.931 129.303 132.033 128.87C133.136 128.436 134.138 127.801 134.981 127.001C135.825 126.2 136.494 125.249 136.951 124.203C137.408 123.157 137.643 122.036 137.643 120.904V11.626C137.643 10.4937 137.408 9.37255 136.951 8.32647C136.494 7.28039 135.825 6.3299 134.981 5.52926C134.138 4.72862 133.136 4.09353 132.033 3.66023C130.931 3.22693 129.75 3.00391 128.556 3.00391Z" fill="white"/>
<path d="M108.528 121.786C104.574 121.787 100.739 120.499 97.6656 118.137C94.5926 115.775 92.4687 112.482 91.6497 108.811C90.8307 105.14 91.3665 101.313 93.1672 97.9716C94.9678 94.6305 97.924 91.9782 101.54 90.4593C105.157 88.9403 109.213 88.6469 113.03 89.6284C116.847 90.6098 120.193 92.8064 122.506 95.85C124.82 98.8936 125.96 102.599 125.737 106.346C125.514 110.093 123.94 113.653 121.28 116.429L124.881 120.26L123.084 120.983C120.304 122.102 117.584 121.014 116.057 120.145C113.71 121.224 111.136 121.785 108.528 121.786ZM108.528 91.7484C106.329 91.7491 104.159 92.2268 102.184 93.1451C100.209 94.0633 98.4817 95.3978 97.1336 97.0466C95.7854 98.6954 94.8522 100.615 94.4054 102.658C93.9586 104.702 94.01 106.815 94.5557 108.837C95.1013 110.858 96.1268 112.735 97.5537 114.323C98.9806 115.911 100.771 117.168 102.789 117.999C104.806 118.83 106.997 119.212 109.194 119.117C111.391 119.021 113.536 118.45 115.465 117.447L116.234 117.046L116.949 117.529C117.767 118.093 118.695 118.496 119.679 118.714L117.413 116.304L118.406 115.418C119.849 114.143 120.998 112.598 121.781 110.881C122.564 109.163 122.965 107.311 122.957 105.44C122.952 101.81 121.431 98.3298 118.726 95.763C116.021 93.1963 112.354 91.7525 108.528 91.7484Z" fill="#E6E6E6"/>
<path d="M124.356 105.44C124.354 102.149 123.214 98.9507 121.11 96.3355C119.006 93.7202 116.055 91.8334 112.71 90.9651C109.366 90.0968 105.813 90.2951 102.599 91.5296C99.3849 92.764 96.6872 94.9662 94.9208 97.7975C93.1544 100.629 92.4171 103.932 92.8223 107.2C93.2275 110.468 94.7528 113.519 97.1636 115.884C99.5744 118.248 102.737 119.796 106.166 120.289C109.594 120.782 113.098 120.192 116.138 118.611C117.233 119.349 119.902 120.823 122.538 119.761L119.364 116.385C120.942 114.983 122.199 113.287 123.058 111.404C123.917 109.521 124.358 107.491 124.356 105.44Z" fill="white"/>
<path d="M111.686 102.369H100.377V103.365H111.686V102.369Z" fill="#214252"/>
<path d="M120.088 105.816H100.377V106.813H120.088V105.816Z" fill="#E6E6E6"/>
<path d="M120.069 109.264H100.377V110.261H120.069V109.264Z" fill="#E6E6E6"/>
<path d="M108.528 49.1272C104.574 49.1289 100.738 47.8408 97.6656 45.4786C94.5926 43.1164 92.4687 39.8238 91.6497 36.1525C90.8307 32.4811 91.3665 28.6543 93.1672 25.3132C94.9678 21.972 97.924 19.3198 101.54 17.8008C105.157 16.2818 109.213 15.9885 113.03 16.9699C116.847 17.9514 120.193 20.1479 122.506 23.1915C124.82 26.2351 125.96 29.9408 125.737 33.6875C125.514 37.4342 123.94 40.9942 121.28 43.771L124.881 47.6016L123.084 48.3249C120.304 49.4439 117.584 48.3551 116.057 47.4861C113.71 48.5656 111.136 49.1267 108.528 49.1272ZM108.528 19.09C106.329 19.0906 104.159 19.5683 102.184 20.4866C100.209 21.4048 98.4817 22.7394 97.1335 24.3881C95.7853 26.0369 94.8522 27.9564 94.4054 29.9997C93.9586 32.0431 94.01 34.1564 94.5557 36.178C95.1013 38.1997 96.1268 40.0762 97.5537 41.6643C98.9806 43.2523 100.771 44.5097 102.789 45.3406C104.806 46.1714 106.997 46.5536 109.194 46.458C111.391 46.3624 113.536 45.7914 115.465 44.7888L116.234 44.3877L116.949 44.8707C117.767 45.4348 118.695 45.8377 119.679 46.0558L117.413 43.6453L118.406 42.7596C119.849 41.4842 120.998 39.9393 121.781 38.222C122.564 36.5048 122.965 34.6523 122.957 32.7812C122.952 29.1513 121.431 25.6713 118.726 23.1046C116.021 20.5379 112.354 19.0941 108.528 19.09V19.09Z" fill="#E6E6E6"/>
<path d="M124.356 32.781C124.354 29.4907 123.214 26.292 121.11 23.6768C119.006 21.0616 116.055 19.1747 112.71 18.3064C109.366 17.4381 105.813 17.6364 102.599 18.8709C99.3849 20.1053 96.6872 22.3076 94.9208 25.1389C93.1544 27.9701 92.4171 31.2737 92.8223 34.5414C93.2275 37.8091 94.7529 40.86 97.1637 43.2248C99.5745 45.5897 102.737 47.1375 106.166 47.6303C109.594 48.123 113.098 47.5334 116.138 45.9521C117.233 46.6907 119.902 48.1641 122.538 47.1028L119.364 43.7267C120.942 42.324 122.199 40.6286 123.058 38.7457C123.917 36.8628 124.358 34.8326 124.356 32.781Z" fill="white"/>
<path d="M111.686 29.7104H100.377V30.707H111.686V29.7104Z" fill="#214252"/>
<path d="M120.088 33.1577H100.377V34.1543H120.088V33.1577Z" fill="#E6E6E6"/>
<path d="M120.069 36.6052H100.377V37.6018H120.069V36.6052Z" fill="#E6E6E6"/>
<path d="M130.451 50.5235C131.829 50.5235 132.946 49.4636 132.946 48.1561C132.946 46.8487 131.829 45.7888 130.451 45.7888C129.073 45.7888 127.957 46.8487 127.957 48.1561C127.957 49.4636 129.073 50.5235 130.451 50.5235Z" fill="#E6E6E6"/>
<path d="M130.451 123.182C131.829 123.182 132.946 122.122 132.946 120.815C132.946 119.507 131.829 118.447 130.451 118.447C129.073 118.447 127.957 119.507 127.957 120.815C127.957 122.122 129.073 123.182 130.451 123.182Z" fill="#E6E6E6"/>
<path d="M75.3562 86.6818C73.5305 87.7208 70.2778 89.0227 66.9538 87.6848L64.8052 86.8199L69.1109 82.2397C65.675 78.6448 63.7741 73.9639 63.7793 69.1106C63.7845 64.2574 65.6955 59.5801 69.1393 55.9919C72.583 52.4036 77.3123 50.1619 82.404 49.7042C87.4958 49.2465 92.5845 50.6058 96.677 53.5166C100.769 56.4275 103.572 60.6811 104.537 65.4471C105.503 70.2131 104.562 75.1494 101.899 79.2926C99.235 83.4358 95.04 86.4885 90.1323 87.8547C85.2246 89.221 79.9565 88.8028 75.3562 86.6818H75.3562Z" fill="#F94B4B"/>
<path opacity="0.1" d="M101.704 69.0089C101.703 64.5212 99.9322 60.1963 96.7393 56.8858C93.5464 53.5753 89.1629 51.5192 84.4521 51.1224C85.0034 51.0766 85.561 51.0518 86.1247 51.0518C91.1416 51.0548 95.9518 52.948 99.4982 56.3153C103.044 59.6826 105.037 64.2483 105.037 69.0089C105.037 73.7694 103.044 78.3352 99.4982 81.7025C95.9518 85.0697 91.1416 86.963 86.1247 86.966C85.5618 86.966 85.0052 86.9409 84.4548 86.8952C89.165 86.4978 93.5478 84.4414 96.7402 81.1311C99.9326 77.8207 101.703 73.4961 101.704 69.0089Z" fill="black"/>
<path d="M87.0139 65.428H73.4917V66.6195H87.0139V65.428Z" fill="white"/>
<path d="M97.0598 69.55H73.4917V70.7416H97.0598V69.55Z" fill="white"/>
<path d="M97.0367 73.6721H73.4917V74.8637H97.0367V73.6721Z" fill="white"/>
<path d="M0.191906 142H73.3079C73.3588 142 73.4076 141.981 73.4436 141.947C73.4796 141.912 73.4998 141.866 73.4998 141.818C73.4998 141.77 73.4796 141.723 73.4436 141.689C73.4076 141.655 73.3588 141.636 73.3079 141.636H0.191906C0.141009 141.636 0.092197 141.655 0.0562077 141.689C0.0202184 141.723 0 141.77 0 141.818C0 141.866 0.0202184 141.912 0.0562077 141.947C0.092197 141.981 0.141009 142 0.191906 142Z" fill="#CCCCCC"/>
<path d="M35.2695 63.6482L35.5585 62.2771C35.5585 62.2771 39.8091 60.906 40.2847 63.6482H35.2695Z" fill="#E6E6E6"/>
<path d="M43.4268 139.143L46.2135 139.143L47.5392 128.944L43.4263 128.944L43.4268 139.143Z" fill="#9F616A"/>
<path d="M42.7163 138.28L48.2042 138.28H48.2044C49.132 138.28 50.0215 138.629 50.6773 139.252C51.3332 139.874 51.7017 140.718 51.7017 141.598V141.706L42.7165 141.707L42.7163 138.28Z" fill="#2F2E41"/>
<path d="M29.9937 139.143L32.7804 139.143L34.1061 128.944L29.9932 128.944L29.9937 139.143Z" fill="#9F616A"/>
<path d="M29.2827 138.28L34.7706 138.28H34.7708C35.6984 138.28 36.5879 138.629 37.2437 139.252C37.8996 139.874 38.2681 140.718 38.2682 141.598V141.706L29.2829 141.707L29.2827 138.28Z" fill="#2F2E41"/>
<path d="M31.2238 69.4068L28.0448 69.1326L26.022 78.1819L26.311 86.4085L29.4899 97.3774L33.8247 94.9094L31.5128 83.6663L31.2238 69.4068Z" fill="#2F2E41"/>
<path d="M29.2114 96.4176L29.923 102.176L30.5914 115.613L29.0562 135.637L34.5468 135.357L37.238 114.516L38.8815 104.918L41.1934 115.887L42.6385 136.454L48.2736 136.025V115.815L48.4181 101.079L46.3952 95.3208L29.2114 96.4176Z" fill="#2F2E41"/>
<path d="M41.0492 63.9224C41.0492 63.9224 39.0263 61.1802 35.2695 63.0997L33.5356 65.2935L28.0448 69.1326L29.2008 82.0209L27.7559 98.2L48.2738 97.9258L44.806 81.7467V64.4708L41.0492 63.9224Z" fill="#2F2E41"/>
<path opacity="0.25" d="M29.923 73.6841L28.2661 92.4841L30.3565 82.2951L29.923 73.6841Z" fill="black"/>
<path d="M64.4136 89.4468C64.1186 89.5419 63.8052 89.5745 63.4954 89.5422C63.1857 89.5099 62.8872 89.4136 62.6209 89.26C62.3547 89.1065 62.1271 88.8994 61.9544 88.6533C61.7816 88.4073 61.6677 88.1283 61.6209 87.8359L56.8926 86.7271L56.9019 83.8362L63.556 85.4911C64.0787 85.4489 64.5996 85.5902 65.0199 85.8881C65.4402 86.186 65.7307 86.6198 65.8364 87.1074C65.9421 87.595 65.8557 88.1025 65.5934 88.5336C65.3312 88.9648 64.9114 89.2897 64.4136 89.4468Z" fill="#9F616A"/>
<path d="M59.4689 83.8016L58.6738 88.1238L60.6666 88.4539L61.4617 84.1317L59.4689 83.8016Z" fill="#E6E6E6"/>
<path d="M40.6164 60.0799C43.4286 58.6212 44.4621 55.2753 42.9249 52.6068C41.3876 49.9383 37.8616 48.9576 35.0494 50.4163C32.2372 51.8751 31.2037 55.2209 32.741 57.8894C34.2783 60.5579 37.8042 61.5387 40.6164 60.0799Z" fill="#9F616A"/>
<path d="M38.2664 60.1058C36.8467 60.4292 35.3509 60.2404 34.0696 59.5761C32.7884 58.9117 31.813 57.8192 31.333 56.5107C30.853 55.2022 30.9027 53.7712 31.4722 52.4954C32.0418 51.2197 33.0907 50.1904 34.4153 49.6074C35.4353 49.1754 36.5507 48.9855 37.6654 49.0539C39.4009 49.1405 41.0878 49.7492 42.8251 49.7043L43.0769 50.0884L44.0259 49.87L44.2292 50.585L44.4792 50.5768C44.927 51.3664 44.2065 52.4968 43.2616 52.4872C42.8875 52.4835 42.5338 52.3356 42.168 52.2612C41.8022 52.1868 41.3714 52.2053 41.1192 52.4675C40.7913 52.8082 40.9341 53.3399 41.0024 53.7967C41.0708 54.2534 40.9 54.8687 40.4141 54.8836C40.1659 54.8912 39.9298 54.7223 39.6859 54.7667C39.4018 54.8184 39.2581 55.144 39.2996 55.4156C39.37 55.6822 39.4847 55.9364 39.6395 56.1686C40.344 57.5029 39.7491 59.318 38.3715 60.0379" fill="#2F2E41"/>
<path d="M43.4266 65.5303L44.8059 64.4707C44.8059 64.4707 47.5897 64.2871 47.5394 67.0874L51.9936 80.3088L60.5387 83.1812L59.3873 88.8263L47.2972 84.4559L41.1562 74.7973L43.4266 65.5303Z" fill="#2F2E41"/>
</g>
<defs>
<clipPath id="clip0">
<rect width="141" height="142" fill="white"/>
</clipPath>
</defs>
</svg>
