<svg width="155" height="146" viewBox="0 0 155 146" fill="none" xmlns="http://www.w3.org/2000/svg">
<g clip-path="url(#clip0)">
<path d="M126.043 58.3428C117.792 51.969 104.868 45.9411 90.5852 41.8049C77.5809 38.0388 64.897 36.2205 54.8672 36.6848L54.8149 35.4797C64.9642 35.01 77.7797 36.8436 90.9003 40.6433C105.316 44.8181 118.38 50.9172 126.742 57.3767L126.043 58.3428Z" fill="#3F3D56"/>
<path d="M125.187 63.2523C125.194 68.8994 124.048 74.4846 121.824 79.6429C121.639 80.0748 121.445 80.5027 121.244 80.9265C117.376 89.113 110.937 95.7036 102.978 99.6234C95.0188 103.543 86.0091 104.561 77.4184 102.51C68.8277 100.46 61.1628 95.4623 55.6741 88.3327C50.1853 81.2032 47.1966 72.3624 47.1953 63.2523C47.1953 62.3198 47.2261 61.3945 47.2875 60.4765C47.3167 60.0096 47.3545 59.5456 47.4008 59.0844C48.4349 48.8148 53.245 39.3472 60.8385 32.6353C68.432 25.9235 78.2293 22.4796 88.2087 23.0143C98.1882 23.549 107.588 28.0216 114.469 35.509C121.35 42.9964 125.186 52.9272 125.187 63.2523H125.187Z" fill="#F2F2F2"/>
<path opacity="0.1" d="M121.824 79.643C121.638 80.0749 121.445 80.5028 121.244 80.9266C120.104 81.0545 118.905 81.1474 117.645 81.2053C116.603 81.2535 115.53 81.2776 114.433 81.2776C104.857 81.2776 93.3325 79.4512 81.559 76.0421C68.4382 72.2421 56.5679 66.9269 48.1336 61.0749C47.8463 60.8759 47.5642 60.6764 47.2871 60.4766C47.3163 60.0097 47.354 59.5457 47.4004 59.0845C47.8475 59.4138 48.3087 59.7435 48.7839 60.0737C57.1189 65.8557 68.8702 71.1142 81.8742 74.8804C93.5449 78.2606 104.961 80.0713 114.428 80.0713C115.51 80.0713 116.565 80.0476 117.593 80.0002C119.09 79.9302 120.5 79.8111 121.824 79.643Z" fill="black"/>
<path d="M114.434 80.3125C104.858 80.3128 93.3326 78.4862 81.5597 75.0767C68.4391 71.2769 56.5682 65.9616 48.1338 60.1097C39.5234 54.1358 35.4858 48.2493 36.7648 43.5346C38.0436 38.82 44.4541 35.9593 54.8152 35.4795L54.8674 36.6847C50.0289 36.9087 46.0857 37.6517 43.1474 38.8932C40.2163 40.1316 38.4471 41.8027 37.8889 43.8603C37.3308 45.9177 38.0017 48.2955 39.8829 50.9276C41.7687 53.5661 44.7637 56.3184 48.7847 59.1082C57.1188 64.8905 68.8704 70.1491 81.8749 73.9152C93.5458 77.2951 104.961 79.1062 114.428 79.1065C115.51 79.1065 116.565 79.0827 117.593 79.0352C122.431 78.8111 126.374 78.0681 129.313 76.8266C132.244 75.5882 134.013 73.9172 134.571 71.8596C135.573 68.1652 132.545 63.3648 126.043 58.3427L126.743 57.3766C130.088 59.9609 132.565 62.5083 134.104 64.9479C135.753 67.5633 136.289 69.9984 135.696 72.1852C134.417 76.8999 128.006 79.7605 117.645 80.2403C116.603 80.2886 115.53 80.3125 114.434 80.3125Z" fill="#3F3D56"/>
<path d="M87.2222 15.6937C87.469 15.6937 87.6691 15.487 87.6691 15.232C87.6691 14.977 87.469 14.7703 87.2222 14.7703C86.9755 14.7703 86.7754 14.977 86.7754 15.232C86.7754 15.487 86.9755 15.6937 87.2222 15.6937Z" fill="#F2F2F2"/>
<path d="M27.9401 35.7285C28.3647 35.7285 28.7089 35.3729 28.7089 34.9342C28.7089 34.4955 28.3647 34.1399 27.9401 34.1399C27.5156 34.1399 27.1714 34.4955 27.1714 34.9342C27.1714 35.3729 27.5156 35.7285 27.9401 35.7285Z" fill="#CCCCCC"/>
<path d="M26.3013 67.5916C27.1401 67.5916 27.82 66.8891 27.82 66.0225C27.82 65.1559 27.1401 64.4534 26.3013 64.4534C25.4626 64.4534 24.7827 65.1559 24.7827 66.0225C24.7827 66.8891 25.4626 67.5916 26.3013 67.5916Z" fill="#CCCCCC"/>
<path d="M117.459 19.0479C118.018 19.0479 118.472 18.5796 118.472 18.0021C118.472 17.4245 118.018 16.9563 117.459 16.9563C116.9 16.9563 116.447 17.4245 116.447 18.0021C116.447 18.5796 116.9 19.0479 117.459 19.0479Z" fill="#CCCCCC"/>
<path d="M153.357 63.1034C154.264 63.1034 155 62.3432 155 61.4055C155 60.4677 154.264 59.7075 153.357 59.7075C152.449 59.7075 151.713 60.4677 151.713 61.4055C151.713 62.3432 152.449 63.1034 153.357 63.1034Z" fill="#CCCCCC"/>
<path d="M140.507 35.0151C140.896 35.0151 141.212 34.6889 141.212 34.2866C141.212 33.8843 140.896 33.5581 140.507 33.5581C140.117 33.5581 139.802 33.8843 139.802 34.2866C139.802 34.6889 140.117 35.0151 140.507 35.0151Z" fill="#CCCCCC"/>
<path d="M54.9002 26.0642C55.5077 26.0642 56.0001 25.5554 56.0001 24.9277C56.0001 24.3001 55.5077 23.7913 54.9002 23.7913C54.2927 23.7913 53.8003 24.3001 53.8003 24.9277C53.8003 25.5554 54.2927 26.0642 54.9002 26.0642Z" fill="#CCCCCC"/>
<path d="M138.039 58.6911C138.428 58.6911 138.744 58.365 138.744 57.9626C138.744 57.5603 138.428 57.2341 138.039 57.2341C137.65 57.2341 137.334 57.5603 137.334 57.9626C137.334 58.365 137.65 58.6911 138.039 58.6911Z" fill="#CCCCCC"/>
<path d="M0.877532 61.5497C1.36218 61.5497 1.75506 61.1438 1.75506 60.643C1.75506 60.1423 1.36218 59.7363 0.877532 59.7363C0.392885 59.7363 0 60.1423 0 60.643C0 61.1438 0.392885 61.5497 0.877532 61.5497Z" fill="#CCCCCC"/>
<path d="M14.2091 46.7036C14.734 46.7036 15.1594 46.2639 15.1594 45.7216C15.1594 45.1794 14.734 44.7397 14.2091 44.7397C13.6843 44.7397 13.2588 45.1794 13.2588 45.7216C13.2588 46.2639 13.6843 46.7036 14.2091 46.7036Z" fill="#CCCCCC"/>
<path d="M75.2273 1.93759H73.352V0H72.3459V1.93759H70.4697V2.97812H72.3459V4.91571H73.352V2.97812H75.2273V1.93759Z" fill="#CCCCCC"/>
<path d="M118.73 106.785H117.552V105.569H116.92V106.785H115.743V107.438H116.92V108.654H117.552V107.438H118.73V106.785Z" fill="#CCCCCC"/>
<path d="M145.908 100.557H145.028V99.6479H144.556V100.557H143.675V101.046H144.556V101.955H145.028V101.046H145.908V100.557Z" fill="#CCCCCC"/>
<path opacity="0.1" d="M61.6026 59.8664C63.4124 59.8664 64.8795 58.3505 64.8795 56.4806C64.8795 54.6106 63.4124 53.0947 61.6026 53.0947C59.7928 53.0947 58.3257 54.6106 58.3257 56.4806C58.3257 58.3505 59.7928 59.8664 61.6026 59.8664Z" fill="black"/>
<path opacity="0.1" d="M97.7979 93.8789C99.6077 93.8789 101.075 92.363 101.075 90.493C101.075 88.6231 99.6077 87.1072 97.7979 87.1072C95.9881 87.1072 94.521 88.6231 94.521 90.493C94.521 92.363 95.9881 93.8789 97.7979 93.8789Z" fill="black"/>
<path opacity="0.1" d="M86.7755 65.0991C88.5853 65.0991 90.0524 63.5832 90.0524 61.7133C90.0524 59.8433 88.5853 58.3274 86.7755 58.3274C84.9657 58.3274 83.4985 59.8433 83.4985 61.7133C83.4985 63.5832 84.9657 65.0991 86.7755 65.0991Z" fill="black"/>
<path opacity="0.1" d="M63.2413 83.7214C65.0511 83.7214 66.5182 82.2055 66.5182 80.3356C66.5182 78.4656 65.0511 76.9497 63.2413 76.9497C61.4315 76.9497 59.9644 78.4656 59.9644 80.3356C59.9644 82.2055 61.4315 83.7214 63.2413 83.7214Z" fill="black"/>
<path opacity="0.1" d="M104.352 46.9387C106.161 46.9387 107.629 45.4228 107.629 43.5529C107.629 41.6829 106.161 40.167 104.352 40.167C102.542 40.167 101.075 41.6829 101.075 43.5529C101.075 45.4228 102.542 46.9387 104.352 46.9387Z" fill="black"/>
<path opacity="0.1" d="M115.225 69.8701C117.035 69.8701 118.502 68.3542 118.502 66.4842C118.502 64.6143 117.035 63.0984 115.225 63.0984C113.415 63.0984 111.948 64.6143 111.948 66.4842C111.948 68.3542 113.415 69.8701 115.225 69.8701Z" fill="black"/>
<path d="M104.352 33.8568C106.737 33.8568 108.671 31.8585 108.671 29.3936C108.671 26.9286 106.737 24.9304 104.352 24.9304C101.966 24.9304 100.032 26.9286 100.032 29.3936C100.032 31.8585 101.966 33.8568 104.352 33.8568Z" fill="white"/>
<path d="M104.352 22.9299C102.732 22.9299 101.179 23.5947 100.033 24.7781C98.888 25.9614 98.2446 27.5664 98.2446 29.2399C98.2446 32.7248 104.352 44.1684 104.352 44.1684C104.352 44.1684 110.459 32.7248 110.459 29.2399C110.459 27.5664 109.815 25.9614 108.67 24.7781C107.525 23.5947 105.971 22.9299 104.352 22.9299ZM104.352 32.318C103.792 32.318 103.245 32.1465 102.779 31.8252C102.314 31.5039 101.951 31.0472 101.737 30.5128C101.523 29.9785 101.467 29.3906 101.576 28.8233C101.685 28.2561 101.955 27.7351 102.35 27.3261C102.746 26.9172 103.251 26.6387 103.8 26.5258C104.348 26.413 104.918 26.4709 105.435 26.6923C105.952 26.9136 106.394 27.2884 106.705 27.7693C107.016 28.2501 107.182 28.8155 107.182 29.3938C107.182 29.7778 107.108 30.1581 106.966 30.5128C106.824 30.8676 106.616 31.19 106.353 31.4615C106.09 31.733 105.778 31.9484 105.435 32.0954C105.091 32.2423 104.723 32.318 104.352 32.318Z" fill="#214252"/>
<path d="M61.5857 45.963C63.9713 45.963 65.9053 43.9647 65.9053 41.4998C65.9053 39.0349 63.9713 37.0366 61.5857 37.0366C59.2001 37.0366 57.2661 39.0349 57.2661 41.4998C57.2661 43.9647 59.2001 45.963 61.5857 45.963Z" fill="white"/>
<path d="M61.586 35.0361C59.9663 35.0361 58.413 35.7009 57.2677 36.8843C56.1224 38.0676 55.479 39.6726 55.479 41.3461C55.479 44.831 61.586 56.2746 61.586 56.2746C61.586 56.2746 67.693 44.831 67.693 41.3461C67.693 39.6726 67.0495 38.0676 65.9043 36.8843C64.759 35.7009 63.2057 35.0361 61.586 35.0361ZM61.586 44.4242C61.0263 44.4242 60.4791 44.2527 60.0137 43.9314C59.5483 43.6101 59.1855 43.1534 58.9713 42.619C58.7571 42.0847 58.7011 41.4968 58.8103 40.9295C58.9195 40.3623 59.189 39.8413 59.5848 39.4323C59.9806 39.0234 60.4849 38.7449 61.0339 38.6321C61.5829 38.5192 62.1519 38.5771 62.669 38.7985C63.1862 39.0198 63.6281 39.3946 63.9391 39.8755C64.2501 40.3563 64.4161 40.9217 64.4161 41.5C64.4161 41.884 64.3429 42.2643 64.2007 42.619C64.0584 42.9738 63.85 43.2962 63.5872 43.5677C63.3244 43.8392 63.0124 44.0546 62.669 44.2016C62.3256 44.3485 61.9576 44.4242 61.586 44.4242Z" fill="#F94B4B"/>
<path d="M115.776 56.2532C118.161 56.2532 120.095 54.255 120.095 51.7901C120.095 49.3251 118.161 47.3269 115.776 47.3269C113.39 47.3269 111.456 49.3251 111.456 51.7901C111.456 54.255 113.39 56.2532 115.776 56.2532Z" fill="white"/>
<path d="M115.775 45.3262C114.156 45.3262 112.602 45.991 111.457 47.1743C110.312 48.3577 109.668 49.9627 109.668 51.6362C109.668 55.1211 115.775 66.5647 115.775 66.5647C115.775 66.5647 121.882 55.1211 121.882 51.6362C121.882 49.9627 121.239 48.3577 120.094 47.1743C118.948 45.991 117.395 45.3262 115.775 45.3262ZM115.775 54.7142C115.216 54.7142 114.669 54.5427 114.203 54.2214C113.738 53.9001 113.375 53.4434 113.161 52.9091C112.947 52.3748 112.891 51.7868 113 51.2196C113.109 50.6524 113.378 50.1313 113.774 49.7224C114.17 49.3134 114.674 49.0349 115.223 48.9221C115.772 48.8093 116.341 48.8672 116.858 49.0885C117.376 49.3098 117.818 49.6846 118.129 50.1655C118.44 50.6464 118.606 51.2117 118.606 51.7901C118.606 52.1741 118.532 52.5543 118.39 52.9091C118.248 53.2639 118.039 53.5862 117.777 53.8578C117.514 54.1293 117.202 54.3447 116.858 54.4916C116.515 54.6386 116.147 54.7142 115.775 54.7142Z" fill="#7D98A1"/>
<path d="M42.5461 78.6498C44.9318 78.6498 46.8657 76.6515 46.8657 74.1866C46.8657 71.7216 44.9318 69.7234 42.5461 69.7234C40.1605 69.7234 38.2266 71.7216 38.2266 74.1866C38.2266 76.6515 40.1605 78.6498 42.5461 78.6498Z" fill="white"/>
<path d="M42.5464 67.7227C40.9268 67.7227 39.3734 68.3875 38.2281 69.5708C37.0829 70.7542 36.4395 72.3591 36.4395 74.0326C36.4395 77.5176 42.5464 88.9612 42.5464 88.9612C42.5464 88.9612 48.6534 77.5176 48.6534 74.0326C48.6534 72.3591 48.01 70.7542 46.8647 69.5708C45.7194 68.3875 44.1661 67.7227 42.5464 67.7227ZM42.5464 77.1107C41.9867 77.1107 41.4395 76.9392 40.9741 76.6179C40.5087 76.2966 40.146 75.8399 39.9318 75.3056C39.7176 74.7712 39.6615 74.1833 39.7707 73.6161C39.8799 73.0488 40.1495 72.5278 40.5453 72.1189C40.9411 71.7099 41.4453 71.4314 41.9943 71.3186C42.5433 71.2057 43.1123 71.2637 43.6295 71.485C44.1466 71.7063 44.5886 72.0811 44.8996 72.562C45.2105 73.0429 45.3765 73.6082 45.3765 74.1865C45.3765 74.5706 45.3033 74.9508 45.1611 75.3056C45.0189 75.6604 44.8104 75.9827 44.5476 76.2542C44.2848 76.5258 43.9728 76.7412 43.6295 76.8881C43.2861 77.0351 42.9181 77.1107 42.5464 77.1107Z" fill="#214252"/>
<path d="M141.974 110.024C142.813 109.298 141.679 106.473 139.443 103.713C137.207 100.954 134.714 99.3044 133.876 100.03C133.037 100.755 134.17 103.581 136.407 106.34C138.643 109.1 141.136 110.749 141.974 110.024Z" fill="#2F2E41"/>
<path d="M124.507 115.798C131.474 115.798 137.122 109.962 137.122 102.764C137.122 95.5647 131.474 89.729 124.507 89.729C117.54 89.729 111.892 95.5647 111.892 102.764C111.892 109.962 117.54 115.798 124.507 115.798Z" fill="#2F2E41"/>
<path d="M129.847 112.993H126.014V120.088H129.847V112.993Z" fill="#2F2E41"/>
<path d="M122.182 112.993H118.349V120.088H122.182V112.993Z" fill="#2F2E41"/>
<path d="M126.653 121.408C128.417 121.408 129.846 120.854 129.846 120.171C129.846 119.487 128.417 118.933 126.653 118.933C124.889 118.933 123.459 119.487 123.459 120.171C123.459 120.854 124.889 121.408 126.653 121.408Z" fill="#2F2E41"/>
<path d="M118.988 121.243C120.752 121.243 122.182 120.689 122.182 120.006C122.182 119.322 120.752 118.768 118.988 118.768C117.224 118.768 115.794 119.322 115.794 120.006C115.794 120.689 117.224 121.243 118.988 121.243Z" fill="#2F2E41"/>
<path d="M120.546 86.3789C121.673 81.6917 126.645 78.9334 131.652 80.218C136.659 81.5027 139.805 86.3439 138.679 91.0311C137.552 95.7183 133.815 95.7334 128.808 94.4488C123.801 93.1641 119.42 91.0661 120.546 86.3789Z" fill="#F94B4B"/>
<path d="M115.997 99.5083C116.466 98.4874 114.294 96.4093 111.147 94.8669C107.999 93.3245 105.068 92.9017 104.599 93.9227C104.13 94.9436 106.302 97.0216 109.45 98.5641C112.597 100.107 115.529 100.529 115.997 99.5083Z" fill="#2F2E41"/>
<path d="M122.621 104.359C124.944 104.359 126.827 102.413 126.827 100.013C126.827 97.6131 124.944 95.6675 122.621 95.6675C120.298 95.6675 118.415 97.6131 118.415 100.013C118.415 102.413 120.298 104.359 122.621 104.359Z" fill="white"/>
<path d="M120.892 99.9042C121.666 99.9042 122.294 99.2557 122.294 98.4556C122.294 97.6556 121.666 97.0071 120.892 97.0071C120.118 97.0071 119.49 97.6556 119.49 98.4556C119.49 99.2557 120.118 99.9042 120.892 99.9042Z" fill="#3F3D56"/>
<path d="M125.26 109.067C125.326 109.442 125.319 109.826 125.242 110.197C125.164 110.569 125.016 110.922 124.807 111.235C124.597 111.548 124.33 111.815 124.021 112.021C123.711 112.227 123.365 112.368 123.003 112.436C122.641 112.505 122.269 112.498 121.909 112.418C121.549 112.338 121.208 112.185 120.905 111.968C120.603 111.752 120.344 111.476 120.145 111.156C119.945 110.836 119.808 110.479 119.742 110.105L119.741 110.099C119.466 108.525 120.644 107.968 122.168 107.683C123.691 107.398 124.984 107.493 125.26 109.067Z" fill="white"/>
<path d="M98.5265 75.0728C97.229 73.9415 95.6413 73.2244 93.9565 73.0085C92.2717 72.7926 90.5625 73.0874 89.0368 73.8569C87.5112 74.6264 86.235 75.8375 85.3634 77.3428C84.4918 78.8481 84.0624 80.5827 84.1275 82.3356C84.1927 84.0884 84.7495 85.7839 85.7302 87.2157C86.7109 88.6476 88.0733 89.754 89.6515 90.4004C91.2298 91.0468 92.9558 91.2053 94.6196 90.8566C96.2834 90.5079 97.8133 89.6671 99.023 88.4364L109.765 97.802C109.929 97.9445 110.14 98.0142 110.354 97.9956C110.567 97.9771 110.764 97.8719 110.902 97.7031C111.04 97.5343 111.108 97.3158 111.09 97.0955C111.072 96.8753 110.971 96.6713 110.807 96.5285L110.806 96.5274L100.064 87.1618C101.312 85.3112 101.846 83.0458 101.562 80.8096C101.277 78.5733 100.195 76.5274 98.5265 75.0728ZM97.834 86.2599C96.9971 87.2847 95.8849 88.0301 94.6381 88.4017C93.3912 88.7734 92.0657 88.7547 90.8292 88.348C89.5926 87.9413 88.5005 87.1648 87.691 86.1168C86.8816 85.0688 86.391 83.7963 86.2815 82.4603C86.1719 81.1242 86.4483 79.7846 87.0756 78.6108C87.7029 77.4371 88.653 76.4819 89.8057 75.866C90.9584 75.2502 92.262 75.0013 93.5516 75.1509C94.8412 75.3006 96.0589 75.842 97.0507 76.7067C98.3806 77.8662 99.2103 79.5241 99.3572 81.3157C99.5041 83.1073 98.9562 84.8858 97.834 86.2599Z" fill="#214252"/>
<path opacity="0.3" d="M88.5883 87.0695C87.3296 85.972 86.5164 84.4256 86.3101 82.7372C86.1039 81.0488 86.5197 79.3421 87.475 77.9558C87.3495 78.0864 87.2282 78.2231 87.1111 78.366C86.5555 79.0464 86.1349 79.8332 85.8736 80.6816C85.6122 81.5299 85.5151 82.4231 85.5879 83.3102C85.6606 84.1973 85.9017 85.0609 86.2975 85.8518C86.6933 86.6426 87.2359 87.3451 87.8944 87.9193C88.553 88.4934 89.3145 88.9279 90.1355 89.1979C90.9566 89.468 91.821 89.5683 92.6796 89.4931C93.5382 89.418 94.374 89.1688 95.1394 88.7599C95.9048 88.351 96.5847 87.7903 97.1403 87.1099C97.2572 86.9668 97.3672 86.8203 97.4704 86.6703C96.3086 87.8765 94.7502 88.5871 93.1048 88.6611C91.4594 88.735 89.8471 88.1669 88.5883 87.0695Z" fill="black"/>
<path d="M43.3468 93.651C44.5905 90.2889 44.7706 87.2363 43.7491 86.8328C42.7276 86.4294 40.8912 88.828 39.6475 92.1901C38.4038 95.5523 38.2236 98.6049 39.2451 99.0083C40.2667 99.4117 42.103 97.0132 43.3468 93.651Z" fill="#2F2E41"/>
<path d="M29.8368 115.798C36.804 115.798 42.452 109.963 42.452 102.764C42.452 95.565 36.804 89.7292 29.8368 89.7292C22.8697 89.7292 17.2217 95.565 17.2217 102.764C17.2217 109.963 22.8697 115.798 29.8368 115.798Z" fill="#2F2E41"/>
<path d="M27.9208 112.993H24.0884V120.088H27.9208V112.993Z" fill="#2F2E41"/>
<path d="M35.5859 112.993H31.7534V120.088H35.5859V112.993Z" fill="#2F2E41"/>
<path d="M27.2821 121.408C29.0459 121.408 30.4758 120.854 30.4758 120.171C30.4758 119.487 29.0459 118.933 27.2821 118.933C25.5183 118.933 24.0884 119.487 24.0884 120.171C24.0884 120.854 25.5183 121.408 27.2821 121.408Z" fill="#2F2E41"/>
<path d="M34.9471 121.243C36.711 121.243 38.1408 120.689 38.1408 120.006C38.1408 119.322 36.711 118.768 34.9471 118.768C33.1833 118.768 31.7534 119.322 31.7534 120.006C31.7534 120.689 33.1833 121.243 34.9471 121.243Z" fill="#2F2E41"/>
<path d="M30.1562 103.918C32.5374 103.918 34.4677 101.924 34.4677 99.4636C34.4677 97.0033 32.5374 95.0088 30.1562 95.0088C27.7751 95.0088 25.8447 97.0033 25.8447 99.4636C25.8447 101.924 27.7751 103.918 30.1562 103.918Z" fill="white"/>
<path d="M30.1564 100.949C30.9501 100.949 31.5936 100.284 31.5936 99.4637C31.5936 98.6436 30.9501 97.9788 30.1564 97.9788C29.3627 97.9788 28.7192 98.6436 28.7192 99.4637C28.7192 100.284 29.3627 100.949 30.1564 100.949Z" fill="#3F3D56"/>
<path d="M17.6001 90.642C16.5815 85.9285 19.8376 81.1657 24.8728 80.004C29.908 78.8423 34.8156 81.7216 35.8342 86.4351C36.8529 91.1485 33.5158 92.8869 28.4806 94.0486C23.4454 95.2103 18.6187 95.3554 17.6001 90.642Z" fill="#F94B4B"/>
<path d="M21.3273 99.5083C21.7959 98.4874 19.6243 96.4093 16.4767 94.8669C13.3292 93.3245 10.3978 92.9017 9.92911 93.9227C9.46047 94.9436 11.6321 97.0216 14.7796 98.5641C17.9272 100.107 20.8586 100.529 21.3273 99.5083Z" fill="#2F2E41"/>
<path d="M23.6406 107.466C23.6406 108.742 26.8197 111.261 30.3474 111.261C33.8751 111.261 37.1827 107.669 37.1827 106.394C37.1827 105.118 33.8751 106.641 30.3474 106.641C26.8198 106.641 23.6406 106.19 23.6406 107.466Z" fill="white"/>
<path d="M70.7631 139.405C77.7303 139.405 83.3783 133.569 83.3783 126.37C83.3783 119.172 77.7303 113.336 70.7631 113.336C63.7959 113.336 58.1479 119.172 58.1479 126.37C58.1479 133.569 63.7959 139.405 70.7631 139.405Z" fill="#2F2E41"/>
<path d="M68.8471 136.6H65.0146V143.695H68.8471V136.6Z" fill="#2F2E41"/>
<path d="M76.5117 136.6H72.6792V143.695H76.5117V136.6Z" fill="#2F2E41"/>
<path d="M68.2084 145.015C69.9722 145.015 71.4021 144.461 71.4021 143.777C71.4021 143.094 69.9722 142.54 68.2084 142.54C66.4445 142.54 65.0146 143.094 65.0146 143.777C65.0146 144.461 66.4445 145.015 68.2084 145.015Z" fill="#2F2E41"/>
<path d="M75.8729 144.85C77.6368 144.85 79.0666 144.296 79.0666 143.612C79.0666 142.929 77.6368 142.375 75.8729 142.375C74.1091 142.375 72.6792 142.929 72.6792 143.612C72.6792 144.296 74.1091 144.85 75.8729 144.85Z" fill="#2F2E41"/>
<path d="M58.5259 114.249C57.5072 109.535 60.7634 104.773 65.7986 103.611C70.8338 102.449 75.7414 105.329 76.7601 110.042C77.7787 114.755 74.4416 116.494 69.4064 117.656C64.3712 118.817 59.5445 118.962 58.5259 114.249Z" fill="#2F2E41"/>
<path d="M70.8139 124.112C70.8139 124.112 71.729 119.952 69.9903 120.141C68.2516 120.33 65.8723 120.424 65.2317 120.424C64.5912 120.424 60.9307 119.952 60.3817 122.41C59.8326 124.868 59.1005 127.894 60.6562 129.785C60.6562 129.785 61.2053 138.106 63.31 138.673C65.4147 139.24 70.9969 139.902 73.0101 137.16C73.5996 136.345 74.0111 135.407 74.2165 134.411C74.4218 133.415 74.4161 132.386 74.1998 131.393H73.2847L70.8139 124.112Z" fill="#F94B4B"/>
<path opacity="0.1" d="M61.5713 130.447C61.5713 130.447 63.127 131.203 66.3298 130.731V132.149L61.5713 131.771V130.447Z" fill="black"/>
<path d="M73.1976 135.188L72.1616 134.622L76.7691 125.614C76.9421 125.275 77.0287 124.897 77.0208 124.515C77.0129 124.132 76.9107 123.758 76.7239 123.428C76.5371 123.098 76.2719 122.822 75.9533 122.627C75.6347 122.432 75.2732 122.325 74.9031 122.315L70.0679 122.18L70.0993 120.97L74.9347 121.104C75.504 121.12 76.06 121.286 76.5501 121.585C77.0402 121.885 77.4482 122.309 77.7355 122.817C78.0229 123.325 78.1801 123.901 78.1922 124.489C78.2044 125.077 78.0711 125.659 77.8051 126.179L73.1976 135.188Z" fill="#F94B4B"/>
<path d="M62.0614 135.188L57.4539 126.179C57.1878 125.659 57.0545 125.077 57.0667 124.489C57.0788 123.901 57.236 123.325 57.5234 122.817C57.8107 122.309 58.2187 121.885 58.7088 121.585C59.1989 121.286 59.7548 121.12 60.3241 121.104L65.1596 120.97L65.191 122.18L60.3557 122.315C59.9856 122.325 59.6242 122.432 59.3056 122.627C58.987 122.822 58.7217 123.098 58.5349 123.428C58.3481 123.758 58.246 124.132 58.2381 124.515C58.2302 124.897 58.3168 125.275 58.4898 125.614L63.0973 134.622L62.0614 135.188Z" fill="#F94B4B"/>
<path d="M86.9389 129.715C87.5063 128.607 85.1966 126.195 81.78 124.327C78.3634 122.46 75.1338 121.844 74.5664 122.953C73.999 124.061 76.3088 126.473 79.7253 128.34C83.1419 130.208 86.3715 130.823 86.9389 129.715Z" fill="#2F2E41"/>
</g>
<defs>
<clipPath id="clip0">
<rect width="155" height="145.015" fill="white"/>
</clipPath>
</defs>
</svg>
