<svg width="226" height="142" viewBox="0 0 226 142" fill="none" xmlns="http://www.w3.org/2000/svg">
<path d="M110 27C110 20.3726 115.373 15 122 15H214C220.627 15 226 20.3726 226 27V119C226 125.627 220.627 131 214 131H122C115.373 131 110 125.627 110 119V27Z" fill="#7D98A1"/>
<rect x="157" y="25" width="60" height="74" rx="5" fill="#F1F1F1"/>
<rect x="119" y="25" width="27" height="30" rx="5" fill="#214252"/>
<rect x="119" y="91" width="27" height="30" rx="5" fill="#214252"/>
<circle cx="163" cy="115" r="6" fill="#F53D3D"/>
<circle cx="211" cy="115" r="6" fill="#43E05C"/>
<circle cx="187" cy="115" r="6" fill="#FF6B00"/>
<rect x="123" y="65" width="20" height="2" fill="#F1F1F1"/>
<rect x="123" y="72" width="20" height="2" fill="#F1F1F1"/>
<rect x="123" y="79" width="20" height="2" fill="#F1F1F1"/>
<path d="M62.834 126.953L81.1037 126.945C82.396 126.947 83.676 126.695 84.8703 126.202C86.0647 125.708 87.1497 124.984 88.0633 124.07C89.9254 122.208 90.9466 119.728 90.9466 117.102L90.9466 97.4332C90.9494 96.1409 90.6969 94.8609 90.2036 93.6666C89.7102 92.4722 88.9858 91.3872 88.0718 90.4736C86.2097 88.6115 83.7297 87.5903 81.1037 87.5903L66.7213 87.5903C64.6944 82.1967 63.6594 76.4811 63.6664 70.7193C63.6521 64.9507 64.6783 59.2269 66.6956 53.8225H81.078C82.3702 53.8254 83.6502 53.5728 84.8446 53.0795C86.0389 52.5862 87.124 51.8617 88.0375 50.9478C89.8997 49.0856 90.9209 46.6056 90.9209 43.9797L90.938 24.3111C90.9405 23.0169 90.687 21.735 90.1921 20.5392C89.6973 19.3433 88.9709 18.2571 88.0547 17.343C86.1925 15.4809 83.7125 14.4597 81.0866 14.4597L62.8425 14.4597C58.6462 14.4511 54.5615 16.1502 51.5923 19.1194C50.9659 19.7458 50.4167 20.398 49.9275 21.0931C40.2649 34.5659 34.9444 52.1921 34.9359 70.7021C34.9273 89.195 40.2477 106.804 49.919 120.337C52.8796 124.465 57.7023 126.936 62.834 126.953Z" fill="#7D98A1"/>
</svg>
