<svg width="97" height="59" viewBox="0 0 97 59" fill="none" xmlns="http://www.w3.org/2000/svg">
<g clip-path="url(#clip0)">
<path d="M38.2246 12.5306C38.2246 5.90319 43.5972 0.530594 50.2246 0.530594H84.4615C91.0889 0.530594 96.4615 5.90318 96.4615 12.5306V46.7675C96.4615 53.3949 91.0889 58.7675 84.4615 58.7675H50.2246C43.5972 58.7675 38.2246 53.3949 38.2246 46.7675V12.5306Z" fill="#7D98A1"/>
<rect x="61.8208" y="5.55103" width="30.1225" height="37.1511" rx="5" fill="#F1F1F1"/>
<rect x="42.7427" y="5.55103" width="13.5551" height="15.0613" rx="5" fill="#214252"/>
<rect x="42.7427" y="38.6858" width="13.5551" height="15.0613" rx="5" fill="#214252"/>
<circle cx="64.8331" cy="50.7348" r="3.01225" fill="#F53D3D"/>
<circle cx="88.9307" cy="50.7348" r="3.01225" fill="#43E05C"/>
<circle cx="76.8819" cy="50.7348" r="3.01225" fill="#FF6B00"/>
<rect x="44.751" y="25.6327" width="10.0408" height="1.00408" fill="#F1F1F1"/>
<rect x="44.751" y="29.147" width="10.0408" height="1.00408" fill="#F1F1F1"/>
<rect x="44.751" y="32.6613" width="10.0408" height="1.00408" fill="#F1F1F1"/>
<path d="M14.5453 56.7358L23.7175 56.7315C24.3663 56.7329 25.0089 56.6061 25.6085 56.3585C26.2081 56.1108 26.7529 55.7471 27.2115 55.2882C28.1464 54.3534 28.659 53.1083 28.659 51.79L28.659 41.9155C28.6605 41.2668 28.5337 40.6241 28.286 40.0245C28.0383 39.4249 27.6746 38.8802 27.2158 38.4216C26.2809 37.4867 25.0358 36.974 23.7175 36.974L16.4969 36.974C15.4793 34.2662 14.9597 31.3967 14.9632 28.504C14.9561 25.608 15.4712 22.7344 16.484 20.0211L23.7046 20.0212C24.3533 20.0226 24.996 19.8958 25.5956 19.6481C26.1952 19.4004 26.7399 19.0367 27.1986 18.5779C28.1334 17.643 28.6461 16.3979 28.6461 15.0796L28.6547 5.20518C28.656 4.55544 28.5287 3.91187 28.2803 3.3115C28.0318 2.71113 27.6671 2.16581 27.2072 1.70691C26.2723 0.772022 25.0272 0.259346 23.7089 0.259346L14.5496 0.259347C12.4429 0.255039 10.3922 1.10806 8.90155 2.59871C8.58705 2.91321 8.31132 3.24063 8.06576 3.5896C3.2147 10.3535 0.543606 19.2026 0.539296 28.4954C0.534988 37.7796 3.20609 46.6201 8.06145 53.4142C9.54779 55.4864 11.969 56.7272 14.5453 56.7358Z" fill="#7D98A1"/>
</g>
<defs>
<clipPath id="clip0">
<rect width="97" height="59" fill="white"/>
</clipPath>
</defs>
</svg>
